<?xml version="1.0" encoding="UTF-8"?>
<svg id="Calque_2" data-name="Calque 2" xmlns="http://www.w3.org/2000/svg" viewBox="0 0 500.68 230.39">
  <defs>
    <style>
      .cls-1, .cls-2, .cls-3, .cls-4, .cls-5, .cls-6, .cls-7 {
        font-family: ComicSansMS-Bold, 'Comic Sans MS';
        font-weight: 700;
      }

      .cls-1, .cls-2, .cls-4, .cls-5, .cls-6, .cls-8, .cls-7, .cls-9, .cls-10 {
        font-size: 8px;
      }

      .cls-1, .cls-11, .cls-6, .cls-7, .cls-12, .cls-13 {
        fill: #c9242b;
      }

      .cls-2 {
        letter-spacing: .02em;
      }

      .cls-2, .cls-14, .cls-9, .cls-15 {
        fill: #009fe3;
      }

      .cls-16 {
        stroke-width: 3px;
      }

      .cls-16, .cls-17, .cls-18, .cls-19 {
        stroke: #000;
        stroke-miterlimit: 10;
      }

      .cls-16, .cls-19 {
        fill: none;
      }

      .cls-20 {
        font-size: 9px;
      }

      .cls-20, .cls-11, .cls-14, .cls-15, .cls-12, .cls-21, .cls-22, .cls-13 {
        font-family: SuperComic, 'Super Comic';
      }

      .cls-20, .cls-23, .cls-18 {
        fill: #fff;
      }

      .cls-11 {
        font-size: 17.92px;
      }

      .cls-24, .cls-8, .cls-10 {
        fill: #1d1d1b;
      }

      .cls-14 {
        font-size: 11.51px;
      }

      .cls-4 {
        letter-spacing: .02em;
      }

      .cls-4, .cls-5, .cls-21, .cls-22 {
        fill: #fac711;
      }

      .cls-5 {
        letter-spacing: .02em;
      }

      .cls-25 {
        letter-spacing: .02em;
      }

      .cls-17 {
        fill: #010101;
      }

      .cls-26 {
        letter-spacing: .02em;
      }

      .cls-6 {
        letter-spacing: .02em;
      }

      .cls-8 {
        font-family: KomikaAxis, 'Komika Axis';
      }

      .cls-7 {
        letter-spacing: .02em;
      }

      .cls-19 {
        stroke-width: 2px;
      }

      .cls-9 {
        letter-spacing: .02em;
      }

      .cls-27, .cls-10 {
        font-family: ComicSansMS, 'Comic Sans MS';
      }

      .cls-15 {
        font-size: 13.41px;
      }

      .cls-12 {
        font-size: 9.97px;
      }

      .cls-21 {
        font-size: 8.92px;
      }

      .cls-22 {
        font-size: 15.59px;
      }

      .cls-13 {
        font-size: 12.92px;
      }
    </style>
  </defs>
  <g id="Calque_4" data-name="Calque 4">
    <g>
      <g>
        <path class="cls-23" d="m390.96,200.64c.48,1.16,1.87,1.39,3.22,1.44,3.44.11,6.89.19,10.33.15,7.54-.09,15.08-.37,22.63-.37,10.59,0,21.17.24,31.76.28,9.05.03,18.09-.08,27.14-.1,4.45-.01,8.91.05,13.36.07.34,0,.67-.12.9-.17.03-.39.06-.66.08-.94.11-1.17.31-2.34.3-3.51-.02-3.44-.16-6.88-.18-10.32-.04-6.19-.02-12.38-.02-18.57,0-.66.1-1.32.12-1.98,0-.17-.05-.44-.19-.49-.86-.34-1.73-.83-2.64-.9-2.66-.21-5.34-.41-8-.34-10.98.3-21.96.5-32.96.35-17.32-.22-34.64-.05-51.96-.05-4.01,0-8.01-.03-12.02-.03-.36,0-.72.1-1.1.15.18.41.49.74.4.96-.73,1.69-.34,3.4-.32,5.12.05,3.22-.13,6.43-.18,9.65-.1,6.16-.16,12.31-.27,18.47,0,.38-.25.76-.38,1.13Z"/>
        <path d="m390.96,200.64c.13-.38.38-.75.38-1.13.11-6.16.17-12.31.27-18.47.05-3.22.23-6.43.18-9.65-.03-1.72-.41-3.43.32-5.12.09-.22-.21-.55-.4-.96.37-.05.74-.15,1.1-.15,4.01,0,8.01.03,12.02.03,17.32,0,34.64-.17,51.96.05,11,.14,21.98-.05,32.96-.35,2.66-.07,5.35.13,8,.34.91.07,1.78.56,2.64.9.14.05.2.32.19.49-.02.66-.12,1.32-.12,1.98,0,6.19-.02,12.38.02,18.57.02,3.44.16,6.88.18,10.32,0,1.17-.2,2.34-.3,3.51-.02.27-.05.54-.08.94-.23.05-.56.17-.9.17-4.45-.01-8.91-.08-13.36-.07-9.05.02-18.09.14-27.14.1-10.59-.04-21.17-.28-31.76-.28-7.54,0-15.08.28-22.63.37-3.44.04-6.89-.03-10.33-.15-1.35-.05-2.73-.27-3.22-1.44Zm2.76-.35h104.6v-33.5c-2.33,0-4.71,0-7.09,0-15.9.04-31.81.1-47.71.12-10.51.01-21.01-.05-31.52-.03-4.54,0-9.08.15-13.62.19-1.44.01-2.87-.14-4.34-.22-.03.2-.06.32-.07.44-.06,5.9-.09,11.81-.2,17.71-.04,2.26-.41,4.52-.41,6.78,0,2.86.23,5.71.35,8.51Z"/>
        <path class="cls-23" d="m393.73,200.29c-.13-2.8-.35-5.66-.35-8.51,0-2.26.36-4.52.41-6.78.11-5.9.14-11.81.2-17.71,0-.12.04-.25.07-.44,1.47.08,2.91.23,4.34.22,4.54-.03,9.08-.18,13.62-.19,10.51-.02,21.01.05,31.52.03,15.9-.02,31.81-.08,47.71-.12,2.38,0,4.76,0,7.09,0v33.5h-104.6Z"/>
      </g>
      <text class="cls-1" transform="translate(408.24 176.3) scale(.71 1)"><tspan class="cls-25"><tspan x="0" y="0">Injure, moquerie,insulte et</tspan></tspan><tspan class="cls-26"><tspan x="-15.65" y="9.6">surnom désagréable par téléphone </tspan></tspan><tspan class="cls-25"><tspan x="32.23" y="19.2">ou internet</tspan></tspan></text>
    </g>
    <g>
      <g>
        <path class="cls-23" d="m339,123.02c.48,1.1,1.84,1.32,3.17,1.36,3.39.11,6.78.18,10.17.14,7.43-.08,14.85-.35,22.28-.35,10.42,0,20.84.23,31.27.27,8.91.03,17.81-.08,26.72-.1,4.39,0,8.77.05,13.16.06.33,0,.66-.12.88-.16.03-.37.06-.63.08-.89.1-1.11.3-2.22.3-3.33-.02-3.26-.16-6.51-.18-9.77-.04-5.86-.02-11.72-.02-17.59,0-.63.1-1.25.12-1.88,0-.16-.05-.41-.19-.46-.85-.32-1.7-.78-2.6-.85-2.62-.2-5.26-.39-7.88-.32-10.81.29-21.62.47-32.45.34-17.05-.21-34.1-.05-51.15-.05-3.94,0-7.89-.02-11.83-.02-.36,0-.71.09-1.08.15.18.39.48.7.39.91-.72,1.6-.34,3.22-.31,4.85.05,3.05-.13,6.09-.18,9.14-.1,5.83-.16,11.66-.26,17.49,0,.36-.25.72-.38,1.07Z"/>
        <path d="m339,123.02c.13-.36.37-.71.38-1.07.1-5.83.17-11.66.26-17.49.05-3.05.23-6.09.18-9.14-.03-1.63-.4-3.25.31-4.85.09-.21-.21-.52-.39-.91.37-.05.72-.15,1.08-.15,3.94,0,7.89.02,11.83.02,17.05,0,34.11-.16,51.15.05,10.83.13,21.64-.05,32.45-.34,2.62-.07,5.27.12,7.88.32.9.07,1.75.53,2.6.85.13.05.19.31.19.46-.02.63-.12,1.25-.12,1.88,0,5.86-.02,11.72.02,17.59.02,3.26.16,6.51.18,9.77,0,1.11-.19,2.22-.3,3.33-.02.26-.05.52-.08.89-.22.04-.55.16-.88.16-4.39-.01-8.77-.07-13.16-.06-8.91.02-17.81.13-26.72.1-10.42-.04-20.84-.26-31.27-.27-7.43,0-14.85.27-22.28.35-3.39.04-6.78-.03-10.17-.14-1.33-.04-2.69-.26-3.17-1.36Zm2.72-.33h102.98v-31.72c-2.29,0-4.64,0-6.98,0-15.66.04-31.32.1-46.97.12-10.34.01-20.69-.05-31.03-.03-4.47,0-8.94.14-13.41.18-1.41,0-2.83-.13-4.27-.21-.03.19-.06.3-.06.42-.06,5.59-.08,11.18-.19,16.77-.04,2.14-.4,4.28-.4,6.42,0,2.7.22,5.41.35,8.06Z"/>
        <path class="cls-23" d="m341.72,122.69c-.12-2.65-.34-5.36-.35-8.06,0-2.14.36-4.28.4-6.42.11-5.59.13-11.18.19-16.77,0-.12.03-.23.06-.42,1.44.08,2.86.22,4.27.21,4.47-.03,8.94-.17,13.41-.18,10.34-.02,20.69.05,31.03.03,15.66-.02,31.32-.08,46.97-.12,2.35,0,4.69,0,6.98,0v31.72h-102.98Z"/>
      </g>
      <text class="cls-2" transform="translate(345.17 109.84) scale(.72 1)"><tspan x="0" y="0">Menace par téléphone ou internet</tspan></text>
    </g>
    <g>
      <g>
        <path class="cls-23" d="m148.57,65c.48,1.1,1.85,1.32,3.18,1.36,3.4.11,6.81.18,10.21.14,7.46-.08,14.91-.35,22.37-.35,10.46,0,20.93.23,31.39.27,8.94.03,17.88-.08,26.82-.1,4.4,0,8.81.05,13.21.06.33,0,.66-.12.89-.16.03-.37.06-.63.08-.89.1-1.11.3-2.22.3-3.33-.02-3.26-.16-6.51-.18-9.77-.04-5.86-.02-11.72-.02-17.59,0-.63.1-1.25.12-1.88,0-.16-.05-.41-.19-.46-.85-.32-1.71-.78-2.61-.85-2.63-.2-5.28-.39-7.91-.32-10.86.29-21.71.47-32.58.34-17.11-.21-34.24-.05-51.36-.05-3.96,0-7.92-.02-11.88-.02-.36,0-.72.09-1.08.15.18.39.48.7.39.91-.72,1.6-.34,3.22-.31,4.85.05,3.05-.13,6.09-.18,9.14-.1,5.83-.16,11.66-.26,17.49,0,.36-.25.72-.38,1.07Z"/>
        <path d="m148.57,65c.13-.36.37-.71.38-1.07.1-5.83.17-11.66.26-17.49.05-3.05.23-6.09.18-9.14-.03-1.63-.41-3.25.31-4.85.09-.21-.21-.52-.39-.91.37-.05.73-.15,1.08-.15,3.96,0,7.92.02,11.88.02,17.12,0,34.24-.16,51.36.05,10.87.13,21.72-.05,32.58-.34,2.63-.07,5.29.12,7.91.32.9.07,1.76.53,2.61.85.14.05.19.31.19.46-.02.63-.12,1.25-.12,1.88,0,5.86-.02,11.72.02,17.59.02,3.26.16,6.51.18,9.77,0,1.11-.19,2.22-.3,3.33-.02.26-.05.52-.08.89-.22.04-.56.16-.89.16-4.4-.01-8.81-.07-13.21-.06-8.94.02-17.88.13-26.82.1-10.46-.04-20.93-.26-31.39-.27-7.45,0-14.91.27-22.37.35-3.4.04-6.81-.03-10.21-.14-1.33-.04-2.7-.26-3.18-1.36Zm2.73-.33h103.39v-31.72c-2.3,0-4.66,0-7.01,0-15.72.04-31.44.1-47.16.12-10.38.01-20.77-.05-31.15-.03-4.49,0-8.97.14-13.46.18-1.42,0-2.84-.13-4.29-.21-.03.19-.06.3-.07.42-.06,5.59-.08,11.18-.2,16.77-.04,2.14-.4,4.28-.4,6.42,0,2.7.22,5.41.35,8.06Z"/>
        <path class="cls-23" d="m151.3,64.67c-.12-2.65-.35-5.36-.35-8.06,0-2.14.36-4.28.4-6.42.11-5.59.13-11.18.2-16.77,0-.12.04-.23.07-.42,1.45.08,2.87.22,4.29.21,4.49-.03,8.97-.17,13.46-.18,10.38-.02,20.77.05,31.15.03,15.72-.02,31.44-.08,47.16-.12,2.35,0,4.71,0,7.01,0v31.72h-103.39Z"/>
      </g>
      <text class="cls-5" transform="translate(153.41 51.63) scale(.73 1)"><tspan x="0" y="0">Racket par téléphone ou Internet</tspan></text>
    </g>
    <g>
      <g>
        <path class="cls-23" d="m277.31,78.79c.47,1.1,1.83,1.32,3.15,1.36,3.37.11,6.75.18,10.12.14,7.39-.08,14.78-.35,22.17-.35,10.37,0,20.74.23,31.11.27,8.86.03,17.72-.08,26.59-.1,4.36,0,8.73.05,13.09.06.33,0,.66-.12.88-.16.03-.37.06-.63.08-.89.1-1.11.3-2.22.3-3.33-.02-3.26-.16-6.51-.18-9.77-.04-5.86-.02-11.72-.02-17.59,0-.63.1-1.25.12-1.88,0-.16-.05-.41-.19-.46-.84-.32-1.69-.78-2.59-.85-2.6-.2-5.23-.39-7.84-.32-10.76.29-21.51.47-32.29.34-16.96-.21-33.94-.05-50.91-.05-3.92,0-7.85-.02-11.77-.02-.35,0-.71.09-1.08.15.18.39.48.7.39.91-.71,1.6-.34,3.22-.31,4.85.05,3.05-.13,6.09-.18,9.14-.09,5.83-.16,11.66-.26,17.49,0,.36-.25.72-.38,1.07Z"/>
        <path d="m277.31,78.79c.13-.36.37-.71.38-1.07.1-5.83.17-11.66.26-17.49.05-3.05.23-6.09.18-9.14-.03-1.63-.4-3.25.31-4.85.09-.21-.21-.52-.39-.91.37-.05.72-.15,1.08-.15,3.92,0,7.85.02,11.77.02,16.97,0,33.94-.16,50.91.05,10.78.13,21.53-.05,32.29-.34,2.61-.07,5.24.12,7.84.32.89.07,1.74.53,2.59.85.13.05.19.31.19.46-.02.63-.11,1.25-.12,1.88,0,5.86-.02,11.72.02,17.59.02,3.26.16,6.51.18,9.77,0,1.11-.19,2.22-.3,3.33-.02.26-.05.52-.08.89-.22.04-.55.16-.88.16-4.36-.01-8.73-.07-13.09-.06-8.86.02-17.73.13-26.59.1-10.37-.04-20.74-.26-31.11-.27-7.39,0-14.78.27-22.17.35-3.37.04-6.75-.03-10.12-.14-1.32-.04-2.68-.26-3.15-1.36Zm2.71-.33h102.48v-31.72c-2.28,0-4.62,0-6.95,0-15.58.04-31.16.1-46.75.12-10.29.01-20.59-.05-30.88-.03-4.45,0-8.89.14-13.34.18-1.41,0-2.82-.13-4.25-.21-.03.19-.06.3-.06.42-.06,5.59-.08,11.18-.19,16.77-.04,2.14-.4,4.28-.4,6.42,0,2.7.22,5.41.34,8.06Z"/>
        <path class="cls-23" d="m280.02,78.46c-.12-2.65-.34-5.36-.34-8.06,0-2.14.36-4.28.4-6.42.11-5.59.13-11.18.19-16.77,0-.12.03-.23.06-.42,1.44.08,2.85.22,4.25.21,4.45-.03,8.89-.17,13.34-.18,10.29-.02,20.59.05,30.88.03,15.58-.02,31.16-.08,46.75-.12,2.33,0,4.67,0,6.95,0v31.72h-102.48Z"/>
      </g>
      <text class="cls-6" transform="translate(298.27 65.52) scale(.78 1)"><tspan x="0" y="0">Usurpation d’identité</tspan></text>
    </g>
    <g>
      <g>
        <path class="cls-23" d="m4.63,135.07c.45,1.1,1.72,1.32,2.97,1.36,3.18.11,6.36.18,9.54.14,6.96-.08,13.93-.35,20.89-.35,9.77,0,19.55.23,29.32.27,8.35.03,16.7-.08,25.05-.1,4.11,0,8.23.05,12.34.06.31,0,.62-.12.83-.16.03-.37.05-.63.07-.89.1-1.11.28-2.22.28-3.33-.02-3.26-.15-6.51-.17-9.77-.03-5.86-.02-11.72-.02-17.59,0-.63.09-1.25.11-1.88,0-.16-.05-.41-.18-.46-.8-.32-1.59-.78-2.44-.85-2.45-.2-4.93-.39-7.39-.32-10.14.29-20.27.47-30.43.34-15.99-.21-31.98-.05-47.97-.05-3.7,0-7.4-.02-11.1-.02-.33,0-.67.09-1.01.15.17.39.45.7.36.91-.67,1.6-.32,3.22-.29,4.85.04,3.05-.12,6.09-.17,9.14-.09,5.83-.15,11.66-.25,17.49,0,.36-.23.72-.35,1.07Z"/>
        <path d="m4.63,135.07c.12-.36.35-.71.35-1.07.1-5.83.16-11.66.25-17.49.05-3.05.22-6.09.17-9.14-.02-1.63-.38-3.25.29-4.85.09-.21-.2-.52-.36-.91.34-.05.68-.15,1.01-.15,3.7,0,7.4.02,11.1.02,15.99,0,31.99-.16,47.97.05,10.16.13,20.29-.05,30.43-.34,2.46-.07,4.94.12,7.39.32.84.07,1.64.53,2.44.85.13.05.18.31.18.46-.02.63-.11,1.25-.11,1.88,0,5.86-.02,11.72.02,17.59.02,3.26.15,6.51.17,9.77,0,1.11-.18,2.22-.28,3.33-.02.26-.04.52-.07.89-.21.04-.52.16-.83.16-4.11-.01-8.23-.07-12.34-.06-8.35.02-16.7.13-25.05.1-9.77-.04-19.55-.26-29.32-.27-6.96,0-13.93.27-20.89.35-3.18.04-6.36-.03-9.54-.14-1.25-.04-2.52-.26-2.97-1.36Zm2.55-.33h96.58v-31.72c-2.15,0-4.35,0-6.55,0-14.68.04-29.37.1-44.05.12-9.7.01-19.4-.05-29.1-.03-4.19,0-8.38.14-12.57.18-1.33,0-2.65-.13-4.01-.21-.03.19-.06.3-.06.42-.06,5.59-.08,11.18-.18,16.77-.04,2.14-.38,4.28-.37,6.42,0,2.7.21,5.41.32,8.06Z"/>
        <path class="cls-23" d="m7.18,134.74c-.12-2.65-.32-5.36-.32-8.06,0-2.14.33-4.28.37-6.42.1-5.59.13-11.18.18-16.77,0-.12.03-.23.06-.42,1.35.08,2.68.22,4.01.21,4.19-.03,8.38-.17,12.57-.18,9.7-.02,19.4.05,29.1.03,14.68-.02,29.37-.08,44.05-.12,2.2,0,4.4,0,6.55,0v31.72H7.18Z"/>
      </g>
      <text class="cls-7" transform="translate(16 111.34) scale(.7 1)"><tspan x="0" y="0">Happy slapping ou violences </tspan><tspan x="29.93" y="9.6">filmées avec </tspan><tspan x="13.14" y="19.2">un téléphone portable</tspan></text>
    </g>
    <g>
      <g>
        <path class="cls-23" d="m41.89,188.21c.48,1.1,1.86,1.32,3.21,1.36,3.44.11,6.88.18,10.32.14,7.53-.08,15.06-.35,22.59-.35,10.57,0,21.14.23,31.71.27,9.03.03,18.06-.08,27.1-.1,4.45,0,8.9.05,13.34.06.33,0,.67-.12.9-.16.03-.37.06-.63.08-.89.11-1.11.31-2.22.3-3.33-.02-3.26-.16-6.51-.18-9.77-.04-5.86-.02-11.72-.02-17.59,0-.63.1-1.25.12-1.88,0-.16-.05-.41-.19-.46-.86-.32-1.72-.78-2.63-.85-2.65-.2-5.33-.39-7.99-.32-10.97.29-21.93.47-32.91.34-17.29-.21-34.59-.05-51.88-.05-4,0-8-.02-12-.02-.36,0-.72.09-1.1.15.18.39.49.7.39.91-.73,1.6-.34,3.22-.32,4.85.05,3.05-.13,6.09-.18,9.14-.1,5.83-.16,11.66-.27,17.49,0,.36-.25.72-.38,1.07Z"/>
        <path d="m41.89,188.21c.13-.36.38-.71.38-1.07.11-5.83.17-11.66.27-17.49.05-3.05.23-6.09.18-9.14-.03-1.63-.41-3.25.32-4.85.09-.21-.21-.52-.39-.91.37-.05.73-.15,1.1-.15,4,0,8,.02,12,.02,17.29,0,34.59-.16,51.88.05,10.99.13,21.94-.05,32.91-.34,2.66-.07,5.34.12,7.99.32.91.07,1.77.53,2.63.85.14.05.2.31.19.46-.02.63-.12,1.25-.12,1.88,0,5.86-.02,11.72.02,17.59.02,3.26.16,6.51.18,9.77,0,1.11-.2,2.22-.3,3.33-.02.26-.05.52-.08.89-.23.04-.56.16-.9.16-4.45-.01-8.9-.07-13.34-.06-9.03.02-18.07.13-27.1.1-10.57-.04-21.14-.26-31.71-.27-7.53,0-15.06.27-22.59.35-3.44.04-6.88-.03-10.32-.14-1.35-.04-2.73-.26-3.21-1.36Zm2.76-.33h104.45v-31.72c-2.33,0-4.7,0-7.08,0-15.88.04-31.76.1-47.64.12-10.49.01-20.98-.05-31.47-.03-4.53,0-9.07.14-13.6.18-1.43,0-2.87-.13-4.34-.21-.03.19-.06.3-.07.42-.06,5.59-.09,11.18-.2,16.77-.04,2.14-.41,4.28-.4,6.42,0,2.7.23,5.41.35,8.06Z"/>
        <path class="cls-23" d="m44.65,187.88c-.13-2.65-.35-5.36-.35-8.06,0-2.14.36-4.28.4-6.42.11-5.59.14-11.18.2-16.77,0-.12.04-.23.07-.42,1.46.08,2.9.22,4.34.21,4.53-.03,9.07-.17,13.6-.18,10.49-.02,20.98.05,31.47.03,15.88-.02,31.76-.08,47.64-.12,2.38,0,4.76,0,7.08,0v31.72H44.65Z"/>
      </g>
      <text class="cls-9" transform="translate(47.92 169.27) scale(.7 1)"><tspan class="cls-27" x="0" y="0">V</tspan><tspan class="cls-3" x="5.34" y="0">isionnage contre son gré d’images </tspan><tspan class="cls-3"><tspan x="13.84" y="9.6">et vidéos à caractère sexuel</tspan></tspan></text>
    </g>
    <g>
      <g>
        <path class="cls-23" d="m144.55,228.87c.47,1.1,1.83,1.32,3.15,1.36,3.37.11,6.75.18,10.12.14,7.39-.08,14.77-.35,22.16-.35,10.37,0,20.73.23,31.1.27,8.86.03,17.72-.08,26.57-.1,4.36,0,8.72.05,13.09.06.33,0,.66-.12.88-.16.03-.37.06-.63.08-.89.1-1.11.3-2.22.3-3.33-.02-3.26-.16-6.51-.18-9.77-.04-5.86-.02-11.72-.02-17.59,0-.63.1-1.25.12-1.88,0-.16-.05-.41-.19-.46-.84-.32-1.69-.78-2.58-.85-2.6-.2-5.23-.39-7.84-.32-10.76.29-21.5.47-32.28.34-16.96-.21-33.92-.05-50.88-.05-3.92,0-7.85-.02-11.77-.02-.35,0-.71.09-1.07.15.18.39.48.7.39.91-.71,1.6-.33,3.22-.31,4.85.05,3.05-.13,6.09-.18,9.14-.09,5.83-.16,11.66-.26,17.49,0,.36-.25.72-.38,1.07Z"/>
        <path d="m144.55,228.87c.13-.36.37-.71.38-1.07.1-5.83.17-11.66.26-17.49.05-3.05.23-6.09.18-9.14-.03-1.63-.4-3.25.31-4.85.09-.21-.21-.52-.39-.91.37-.05.72-.15,1.07-.15,3.92,0,7.85.02,11.77.02,16.96,0,33.92-.16,50.88.05,10.77.13,21.52-.05,32.28-.34,2.61-.07,5.24.12,7.84.32.89.07,1.74.53,2.58.85.13.05.19.31.19.46-.02.63-.11,1.25-.12,1.88,0,5.86-.02,11.72.02,17.59.02,3.26.16,6.51.18,9.77,0,1.11-.19,2.22-.3,3.33-.02.26-.05.52-.08.89-.22.04-.55.16-.88.16-4.36-.01-8.72-.07-13.09-.06-8.86.02-17.72.13-26.57.1-10.37-.04-20.73-.26-31.1-.27-7.39,0-14.77.27-22.16.35-3.37.04-6.75-.03-10.12-.14-1.32-.04-2.68-.26-3.15-1.36Zm2.71-.33h102.43v-31.72c-2.28,0-4.61,0-6.95,0-15.57.04-31.15.1-46.72.12-10.29.01-20.58-.05-30.87-.03-4.45,0-8.89.14-13.34.18-1.41,0-2.82-.13-4.25-.21-.03.19-.06.3-.06.42-.06,5.59-.08,11.18-.19,16.77-.04,2.14-.4,4.28-.4,6.42,0,2.7.22,5.41.34,8.06Z"/>
        <path class="cls-23" d="m147.26,228.54c-.12-2.65-.34-5.36-.34-8.06,0-2.14.36-4.28.4-6.42.11-5.59.13-11.18.19-16.77,0-.12.03-.23.06-.42,1.44.08,2.84.22,4.25.21,4.45-.03,8.89-.17,13.34-.18,10.29-.02,20.58.05,30.87.03,15.57-.02,31.15-.08,46.72-.12,2.33,0,4.67,0,6.95,0v31.72h-102.43Z"/>
      </g>
      <text class="cls-4" transform="translate(149.88 210.94) scale(.74 1)"><tspan x="0" y="0">Diffusion de rumeurs humiliantes </tspan><tspan x="43.73" y="9.6">sur internet</tspan></text>
    </g>
    <g>
      <line class="cls-19" x1="260.59" y1="129.04" x2="308.48" y2="151.06"/>
      <line class="cls-19" x1="197.45" y1="117.76" x2="244.53" y2="138.58"/>
      <g>
        <path class="cls-17" d="m305.33,214.72c-3.32-.51-7.84-1.93-11.24-3.49-15.43-7.12-169.24-77.04-173.66-79.62-3.64-2.12-7.79-5.31-8.11-9.94-.21-2.99-.38-5.32,7.92-9.98,10.12-5.69,64.29-35.15,64.84-35.45l.93-.51.24.04c1.91-.77,6.79-2.58,13.26-1.59,1.92.29,3.85.82,5.73,1.56,9.76,3.82,165.9,70.32,175.05,74.22,2.47.68,11.95,4.36,11.41,9.49-.52,4.93-1.25,5.8-5.22,8.34-10.62,6.8-58.59,40.91-60.47,42.17-.95.69-9.96,6.41-20.68,4.77Z"/>
        <path class="cls-18" d="m186.57,78.97c.39.06,7.61-4.22,17.52-.34,9.91,3.88,176.22,73.48,176.22,73.48,0,0,15.87,3.81,3.17,11.82-10.98,6.91-61.32,40.92-61.32,40.92,0,0-9.61,7.4-25.37.12-15.77-7.28-172.23-78.71-172.23-78.71,0,0-13.16-6.23-2.85-11.84,10.32-5.61,64.85-35.45,64.85-35.45Z"/>
      </g>
      <line class="cls-16" x1="156.81" y1="142.22" x2="238.08" y2="91.83"/>
      <line class="cls-16" x1="205.19" y1="164.53" x2="288.37" y2="111.24"/>
      <line class="cls-16" x1="335.74" y1="132.16" x2="254.01" y2="188.83"/>
      <text class="cls-11" transform="translate(299.65 179.81) scale(.68 1)"><tspan x="0" y="0">45.6%</tspan></text>
      <line class="cls-16" x1="260.53" y1="129.6" x2="309.32" y2="150.87"/>
      <text class="cls-14" transform="translate(288.37 135.77) scale(.68 1)"><tspan x="0" y="0">7.8%</tspan></text>
      <text class="cls-22" transform="translate(244.99 164.53) scale(.68 1)"><tspan x="0" y="0">19%</tspan></text>
      <line class="cls-16" x1="197.45" y1="117.76" x2="243.53" y2="140.23"/>
      <text class="cls-13" transform="translate(224.97 121.05) scale(.68 1)"><tspan x="0" y="0">11.7%</tspan></text>
      <text class="cls-15" transform="translate(185.86 145.48) scale(.68 1)"><tspan x="0" y="0">9.5%</tspan></text>
      <line class="cls-16" x1="169.4" y1="86.49" x2="214.19" y2="106.05"/>
      <line class="cls-16" x1="138.36" y1="103.04" x2="186.08" y2="124.78"/>
      <text class="cls-12" transform="translate(136.48 126.24) scale(.68 1)"><tspan x="0" y="0">5.3%</tspan></text>
      <text class="cls-21" transform="translate(197.45 93.76) scale(.68 1)"><tspan x="0" y="0">1.1%</tspan></text>
    </g>
    <path class="cls-23" d="m165.8,150.7c.78.47,1.54,1,2.36,1.38,1.89.89,3.94,1.49,5.68,2.6,2.1,1.34,4.35,2.14,6.7,2.81.36.1.66.42,1.12.73-.03-.32-.05-.52-.1-1.03.98.4,1.83.74,2.68,1.08-.03.1-.06.2-.08.29l-1.75-.4c-.02.1-.04.2-.06.31l4.12.96c-.89-1.48-2.07-2.06-3.23-2.6-2.01-.94-4.05-1.81-6.09-2.68-3.56-1.52-7.12-3.01-10.68-4.51-.26-.11-.54-.17-.87-.1,3.57,1.55,7.13,3.1,10.8,4.7-1.92.14-7.07-1.65-9.66-3.31-.32-.07-.63-.15-.95-.22Z"/>
    <path class="cls-23" d="m234.74,181c.78.47,1.54,1,2.36,1.38,1.89.89,3.94,1.49,5.68,2.6,2.1,1.34,4.35,2.14,6.7,2.81.36.1.66.42,1.12.73-.03-.32-.05-.52-.1-1.03.98.4,1.83.74,2.68,1.08-.03.1-.06.2-.08.29l-1.75-.4c-.02.1-.04.2-.06.31,1.27.3,2.55.59,4.12.96-.89-1.48-2.07-2.06-3.23-2.6-2.01-.94-4.05-1.81-6.09-2.68-3.56-1.52-7.12-3.01-10.68-4.51-.26-.11-.54-.17-.87-.1,3.57,1.55,7.13,3.1,10.8,4.7-1.92.14-7.07-1.65-9.66-3.31-.32-.07-.63-.15-.95-.22Z"/>
    <path class="cls-23" d="m340.02,197.8c1.13-.66,2.28-1.25,3.37-1.99,2.5-1.71,4.89-3.74,7.45-5.17,3.1-1.73,5.84-3.89,8.56-6.22.42-.36.97-.54,1.66-.92-.32-.12-.52-.2-1.02-.4,1.24-.92,2.32-1.72,3.39-2.52.06.08.13.16.19.24l-1.94,1.78c.08.07.15.14.23.21,1.41-1.3,2.83-2.6,4.57-4.21-2.14.28-3.72,1.34-5.25,2.39-2.66,1.81-5.28,3.7-7.9,5.59-4.57,3.29-9.12,6.6-13.68,9.91-.33.24-.63.53-.87.94,4.61-3.29,9.22-6.57,13.95-9.95-1.6,2.25-7.84,7.21-11.67,9.34-.35.32-.7.65-1.06.97Z"/>
    <path class="cls-23" d="m239.46,91.58c.78.47,1.54,1,2.36,1.38,1.89.89,3.94,1.49,5.68,2.6,2.1,1.34,4.35,2.14,6.7,2.81.36.1.66.42,1.12.73-.03-.32-.05-.52-.1-1.03.98.4,1.83.74,2.68,1.08-.03.1-.06.2-.08.29l-1.75-.4c-.02.1-.04.2-.06.31l4.12.96c-.89-1.48-2.07-2.06-3.23-2.6-2.01-.94-4.05-1.81-6.09-2.68-3.56-1.52-7.12-3.01-10.68-4.51-.26-.11-.54-.17-.87-.1,3.57,1.55,7.13,3.1,10.8,4.7-1.92.14-7.07-1.65-9.66-3.31-.32-.07-.63-.15-.95-.22Z"/>
  </g>
  <g id="Calque_6" data-name="Calque 6">
    <ellipse class="cls-23" cx="70.78" cy="46.88" rx="66.8" ry="43.5"/>
    <g>
      <rect class="cls-24" x="16.86" y="21.82" width="38.45" height="12.26"/>
      <text transform="translate(17.55 31.32)"><tspan><tspan class="cls-20" x="0" y="0">45.6 %</tspan><tspan class="cls-8" x="35.86" y="0"> </tspan><tspan class="cls-10" x="38.75" y="0">des collégiens au </tspan></tspan><tspan class="cls-10"><tspan x="3.97" y="9">cours du printemps 2022 </tspan></tspan><tspan class="cls-10"><tspan x="-.5" y="18">déclarent avoir été injurés, </tspan></tspan><tspan class="cls-10"><tspan x="8.15" y="27">moqués et humiliés par </tspan></tspan><tspan class="cls-10"><tspan x="9.25" y="36">téléphone ou internet. </tspan></tspan></text>
    </g>
    <path class="cls-23" d="m100.49,84.91s8.56,6.59,11.47,7.92c2.91,1.33,9.85,3.29,9.85,3.29,0,0-7.18-12.55-7.88-13.29-.7-.74-.36-2.8-.36-2.8l-13.09,4.87Z"/>
    <path d="m117.27,80.59c2.5,7.77,8.23,13.51,14.48,19.85-2.22,0-3.83.2-5.37-.03-9.04-1.39-17.58-4.03-24.4-10.39-1.74-1.62-3.53-1.29-5.3-.61-5.08,1.95-10.4,2.36-15.76,2.75-4.93.36-9.86,1.46-14.75,1.28-12.22-.45-24.2-2.59-35.21-8.06-5.23-2.59-10.23-5.72-14.98-9.09-3.57-2.54-6.71-5.71-8.91-9.62-2.08-3.7-4.18-7.24-5.55-11.4-1.82-5.51-2-10.69-.55-16.06,2.83-10.51,9.16-18.55,18.53-24.28,4.07-2.49,8.12-5.09,12.45-7.08,3.62-1.67,7.62-2.59,11.49-3.71,3.14-.91,6.3-1.8,9.51-2.37,7.01-1.24,14.04-2.42,21.22-1.35,6.35.95,12.87,1.2,19.03,2.81,6.28,1.63,12.26,4.42,18.26,6.95,2.91,1.23,5.75,2.81,8.3,4.65,2.57,1.86,4.76,4.22,7.08,6.39,6.52,6.12,11.32,13.2,11.96,22.27.85,12.02-3.53,22.02-12.81,29.93-2.74,2.34-5.57,4.58-8.72,7.16Zm-16.33,4.32c5.89,5.49,12.87,8.74,20.35,10.48-1.95-3.12-3.63-6.49-5.99-9.32-1.47-1.77-2.06-3.5-2.01-5.53.02-.95.44-2.17,1.13-2.77,1.23-1.08,2.79-1.8,4.22-2.65,6.03-3.57,10.35-8.76,13.35-14.81,3.19-6.44,3.97-13.46,2.12-20.45-1.4-5.27-3.9-9.89-8.2-13.81-5.68-5.17-10.94-10.55-18.07-14.06-6.34-3.12-12.92-5.23-19.77-6.46-7.49-1.35-15.14-1.78-22.77-1.31-5.44.34-10.79.77-16.15,2.57-7.37,2.47-15.12,3.62-22.16,7.35-6.12,3.24-11.48,7.25-15.65,12.51-4.68,5.9-7.27,12.79-7.37,20.45-.09,6.96,2.84,12.72,7.09,17.97,3.88,4.79,7.46,9.89,13.3,12.76,4.58,2.26,8.93,5.1,13.7,6.85,6.94,2.55,14.29,3.83,21.69,4.4,4.63.35,9.3.56,13.93.34,3.7-.17,7.36-1.05,11.03-1.67,5.37-.91,10.74-1.87,16.23-2.82Z"/>
  </g>
</svg>