<?xml version="1.0" encoding="UTF-8"?>
<svg id="Calque_2" data-name="Calque 2" xmlns="http://www.w3.org/2000/svg" viewBox="0 0 359.69 246.25">
  <defs>
    <style>
      .cls-1, .cls-2 {
        font-family: SuperComic, 'Super Comic';
        font-size: 25px;
      }

      .cls-3, .cls-4, .cls-5, .cls-6 {
        fill: #1d1d1b;
      }

      .cls-3, .cls-7, .cls-8, .cls-9 {
        font-family: ComicSansMS, 'Comic Sans MS';
      }

      .cls-3, .cls-8, .cls-6 {
        font-size: 18.03px;
      }

      .cls-10, .cls-11 {
        fill: #fff;
      }

      .cls-5, .cls-11 {
        font-size: 16.64px;
      }

      .cls-2 {
        letter-spacing: -.02em;
      }

      .cls-9 {
        font-size: 24.96px;
      }
    </style>
  </defs>
  <g id="Calque_1-2" data-name="Calque 1">
    <path d="m346.38,118.17c-.12,2.63-1.4,6.06-.18,7.76,14.95,20.71,17.19,39.01,6.04,53.23-15.06,19.21-37.54,24.7-61.92,15.09-2.64-1.04-5.23-2.2-7.86-3.31-13.2,35.32-70.22,43.34-101.98,10.78-17.03,34.02-78.37,31.67-87.68.47-13.84,5.02-27.4,11.62-41.75,14.77-23.2,5.09-38.76-2.63-46.83-20.32-8.45-18.52-4.19-34.59,12.49-46.53,3.74-2.68,7.78-4.96,12.33-7.84-19.73-24.55-18.31-49.67-.76-74.08,14.27-19.84,31.25-24.05,63.9-17.45,6.7-28.29,27.58-41.54,54.84-48.12,29.26-7.05,44.9-.55,65.85,28.76,13.88-20.23,34.05-24.88,56.68-20.27,21.34,4.35,35.24,16.97,37.85,39.16,7.28.88,14.52.94,21.28,2.72,20.52,5.39,35.61,30.02,29.71,49.82-1.77,5.94-8.16,10.55-12.43,15.78,3.45-7.46,9.48-14.78,9.88-22.4,1.24-23.24-18.52-40.66-42.22-39.18-3.48.22-6.95.59-10.35.88-5.18-25.59-12.56-35.7-31.23-40.28-23.81-5.84-44.94-2.11-60.19,20.9-10.88-23.44-27.42-37.14-53.82-32.27-31.35,5.78-56.73,18.93-59.67,54.72-32.35-9.25-48.34-7.52-61.38,8.44-18.87,23.08-21.12,47.8-3.87,73.1-6.41,4.78-12.82,8.76-18.24,13.77-10.05,9.27-13.42,20.56-8.25,33.62,6.07,15.32,14.94,21.77,30.56,22.17,17.21.44,32.43-5.32,46.42-14.63,4.56-3.03,8.87-6.42,13.7-9.93,5.23,24.09,13.32,30.81,36.59,31.76,19.2.78,35.43-4.65,45.2-21.54,6.89,4.84,12.11,9.28,18.03,12.5,17.84,9.7,36.6,9.89,55.24,2.77,14.8-5.65,24.14-15.93,22.71-33.15,36.1,17.61,53.28,16.86,70.22-2.37,12.38-14.06,10.5-32.5-6.08-55.37,2.43-1.32,4.8-2.6,7.16-3.88Z"/>
    <path class="cls-10" d="m346.38,114.94c-2.36,1.25-4.73,2.49-7.16,3.78,16.58,22.24,18.46,40.18,6.08,53.85-16.94,18.71-34.12,19.43-70.22,2.31,1.44,16.75-7.9,26.75-22.71,32.25-18.64,6.92-37.4,6.74-55.24-2.69-5.92-3.13-11.13-7.45-18.03-12.16-9.77,16.43-26,21.71-45.2,20.95-23.27-.92-31.37-7.46-36.59-30.89-4.82,3.42-9.14,6.71-13.7,9.66-13.99,9.06-29.21,14.66-46.42,14.23-15.63-.39-24.49-6.67-30.56-21.56-5.17-12.7-1.8-23.68,8.25-32.7,5.43-4.87,11.83-8.75,18.24-13.39-17.25-24.61-15-48.65,3.87-71.1,13.04-15.52,29.02-17.2,61.38-8.2,2.94-34.81,28.32-47.6,59.67-53.22,26.4-4.74,42.94,8.59,53.82,31.39,15.25-22.38,36.38-26.01,60.19-20.33,18.68,4.46,26.05,14.3,31.23,39.18,3.4-.28,6.87-.64,10.35-.86,23.7-1.44,43.46,15.5,42.22,38.11-.41,7.4-6.43,14.53-9.88,21.78,0,0,.41-.39.41-.39Z"/>
    <text transform="translate(44.25 107.18)"><tspan class="cls-4"><tspan class="cls-2" x="0" y="0">4</tspan><tspan class="cls-1" x="19.73" y="0">3%</tspan><tspan class="cls-9" x="56.45" y="0"> </tspan><tspan class="cls-8" x="63.91" y="0">des collégiens déclarent </tspan></tspan><tspan class="cls-3"><tspan x="0" y="21.63">1 violence ou plus de façon répétée </tspan></tspan><tspan class="cls-7"><tspan class="cls-6" x="0" y="43.27">durant l’année scolaire </tspan><tspan class="cls-11" x="193.25" y="43.27">2021 -2022</tspan><tspan class="cls-5" x="283.74" y="43.27" xml:space="preserve">  </tspan></tspan></text>
  </g>
</svg>