<?xml version="1.0" encoding="UTF-8"?>
<svg id="Calque_2" data-name="Calque 2" xmlns="http://www.w3.org/2000/svg" viewBox="0 0 157.32 226.12">
  <defs>
    <style>
      .cls-1 {
        fill: #fff;
      }

      .cls-1, .cls-2 {
        stroke: #000;
        stroke-miterlimit: 10;
        stroke-width: .25px;
      }
    </style>
  </defs>
  <g id="Calque_1-2" data-name="Calque 1">
    <g>
      <path class="cls-2" d="m34.11,213.44c2-.51,3.8-.96,5.71-1.45.11,3.87.41,7.97,1.98,11.88.74-3.93-.52-7.83-.26-12.21,1.34.41,2.78.46,3.67,1.19,1.89,1.55,3.94,1.62,6.12,1.36,3.71-.45,3.67-.47,4.81,3.18.76,2.43,1.66,4.82,2.51,7.22.07.21.25.38.38.57.13-.03.26-.07.4-.1-.77-4.56-1.54-9.13-2.32-13.78,3.02-1.12,6.48-1.71,7-5.74,1.45-.5,3.05-.84,4.43-1.59,1.38-.75,2.55-1.9,3.94-2.97.3.4.7,1.01,1.19,1.54.51.54,1.05,1.28,1.69,1.41.99.19,2.13.12,3.09-.19,1.43-.46.81-1.66.66-2.68-.85-5.93-1.42-11.88-.9-17.87.34-3.93.85-7.84,1.27-11.64,3.02.73,5.79,1.62,8.64,2.02,3.72.53,7.49.74,11.25.93,1.27.06,1.63.51,1.97,1.67,1.18,4.09,2.59,8.11,3.81,12.18.94,3.12,1.49,6.37,2.63,9.41,1.44,3.85,1.44,7.87,2.11,11.82.62,3.71,2.72,5.87,6.43,6.12,5.66.37,11.34.35,17.01.39,1.01,0,2.07-.42,3.03-.82,2.13-.88,2.44-1.59,1.97-3.88-.07-.34-.08-.69-.11-1.01,2.8-.81,5.56-1.53,8.26-2.42,1.42-.47,2.78-1.15,4.11-1.85,3.53-1.84,5.11-4.84,4.99-8.77-.04-1.51-.21-3.01-.25-4.52-.01-.45.07-1.06.36-1.34,2.22-2.15,1.61-4.45.68-6.95-.96-2.57-1.79-5.22-2.3-7.91-.41-2.15-.24-4.41-.4-6.62-.35-4.77-2.38-8.67-6.18-11.6-.58-.45-1.29-.87-1.99-1.01-1.52-.32-2.36-1.21-2.66-2.65-.66-3.24-1.29-6.48-1.87-9.73-.08-.45.05-1.01.27-1.43,2.72-5.29,3.8-11.05,4.16-16.86.45-7.17.49-14.38.3-21.56-.1-3.78-.9-7.57-1.71-11.29-.37-1.69-1.41-3.29-2.39-4.78-4.08-6.19-9.75-10.56-16.19-14.11-2.04-1.13-4.07-2.41-5.54-4.5-.81-1.15-2.41-1.79-2.9-3.37-.24-.76-.75-1.49-.8-2.25-.1-1.7-.09-3.43.08-5.12.1-.95.43-1.97.97-2.75,1.72-2.47,3.57-4.86,5.41-7.24.32-.41.82-.71,1.29-.95,1.94-1.02,3.48-2.48,4.24-4.53,1.19-3.24,2.39-6.49,3.23-9.83,1.18-4.73,1.2-9.6.37-14.39-1.38-7.92-7.37-13.44-15.53-14.74-1.04-.17-2.22-.47-3-1.12C108.46.26,103.01-.44,97.17.49c-1.83.29-3.67.59-5.48.98-6.83,1.45-11.53,5.39-13.82,12.05-.91,2.64-1.64,5.34-2.5,8.17-1.98-1.31-4.29-1.6-6.64-1.03-2.27.54-4.5,1.28-5.25,4.14-.39-.26-.77-.45-1.08-.73-2.84-2.51-6.03-4.33-9.76-5.14-.76-.17-1.06-.56-1.04-1.36.05-2.43-1.19-4.13-3.27-5.17-4.65-2.33-9.67-2.1-12.56,2.08-.57.83-.79,1.92-1.12,2.9-.28.85-.76,1.22-1.71,1.38-4.13.69-7.91,2.01-10.69,5.51-2.9,3.65-3.19,7.52-1.75,11.76.2.6.14,1.32.07,1.97-.21,1.94-.43,3.88-.75,5.81-.09.53-.53,1.01-.83,1.49-.2.33-.54.61-.64.96-.24.81-.52,1.66-.51,2.49.02,2.14.43,4.27-.54,6.35-.26.56-.04,1.35.29,2.14.2-.27.4-.54.61-.81.22.23.42.44.64.67.23-.55.42-1.03.62-1.5.11.02.23.04.34.06-.08.8-.14,1.6-.24,2.39-.79,6.09,2.16,11.44,7.75,13.95.82.37,1.42.65,1.38,1.77-.02.52.61,1.29,1.15,1.56,1.41.71,2.93,1.22,4.72,1.93-2.29.93-4.4,1.85-6.56,2.67-3.09,1.18-6.22,2.23-9.29,3.45-2.53,1-4.41,2.82-5.48,5.33-2.94,6.93-5.76,13.91-8.75,20.81-1.5,3.45-2.06,7-2.01,10.71.05,3.72-.01,7.45-.02,11.17,0,1.63.89,2.68,2.44,3.17,1.16.37,2.27.92,3.77,1.54-2.06,2.75-3.91,5.21-5.74,7.69-1.77,2.4-2.94,5-2.8,8.08.24,5.12.43,10.24.74,15.35.04.63.67,1.22,1.04,1.82.13.2.44.36.45.55.2,3.11,2.68,3.36,4.89,3.95.14.04.29.05.62.11-.87,2.63-1.69,5.23-2.61,7.8-1.23,3.44-2.56,6.86-3.82,10.29-.33.89-.7,1.81-.77,2.73-.04.54.57,1.62.76,1.59.95-.13,2.19.42,2.78-.89.22-.48.53-.92.8-1.38.43.44,1.11.82,1.24,1.34.27,1.13.44,2.35.33,3.5-.16,1.65.45,2.92,1.65,3.82,2,1.51,4.08,2.92,6.22,4.21.67.41,1.63.39,2.47.42.27.01.81-.4.81-.63.05-1.58.97-1.32,2.1-1.02-.52,5.97-1.35,11.93-.03,17.85.19,0,.37,0,.56,0v-13.62c1.69-.07,2.76.34,3.77,1.37.69.71,1.78,1.09,2.75,1.46.88.33,1.84.48,2.78.64,2.52.44,2.47.61,2.25,3.14-.23,2.69-.07,5.42-.03,8.13,0,.5.27,1,.42,1.5.17.03.35.06.52.09.23-.58.62-1.14.66-1.73.25-3.11.41-6.22.6-9.33.03-.54,0-1.08,0-1.48Zm-7.91-115.08c3.98,1.41,11.42,2.21,13.95,1.43-5.39-1-10.65-1.97-15.9-2.94.42-.2.81-.21,1.19-.14,5.23.9,10.47,1.79,15.69,2.72,3,.53,6,1.06,8.98,1.7,1.72.37,3.48.78,5.13,2.48h-5.81c0-.14-.01-.29-.02-.43h2.46c0-.14.01-.28.02-.42-1.25-.19-2.49-.39-3.93-.61.22.67.31.93.45,1.35-.72-.27-1.21-.6-1.73-.62-3.35-.18-6.6-.55-9.83-1.69-2.67-.94-5.61-1.11-8.41-1.71-1.22-.26-2.39-.74-3.58-1.12-1.06-.44-2.11-.87-3.17-1.31.02-.08.04-.15.06-.23,2.19.42,4.37.84,6.56,1.26l-.04.29h-2.07Zm11.85-3.91c-.3-.16-.7-.24-.88-.49-1.85-2.52-3.55-5.16-4.15-8.26-.37-1.89.08-3.78,1.35-5.39.63-.8,1.18-1.71,1.59-2.65.37-.85.5-1.8.72-2.62,5.85,1.08,10.85-.56,15.58-4.43,0,1.89-.09,3.48.03,5.05.09,1.2.62,2.39.62,3.58,0,2.78-1.29,5.12-3.37,6.82-2.16,1.77-4.63,3.14-6.91,4.77-1.49,1.06-2.88,2.26-4.31,3.4,2.37-1.29,4.78-2.51,7.1-3.89,1.89-1.12,3.79-2.29,5.47-3.69,2.17-1.82,4.13-3.9,3.2-7.34.48.26.76.52,1.06.55,1.82.22,2.04,1.37,1.9,2.92-.45,4.82-2.03,9.17-5.06,12.98-.69.87-1.31,1.81-2.01,2.79-3.1-4.07-7.26-4.99-12.15-3.24.1-.38.17-.62.24-.86Zm-12.58,106.41c-1.94-2.16-3.03-4.35-3-7.01.04-3.52-.1-7.05.09-10.56.22-3.85.73-7.68,1.11-11.52-.11-.07-.22-.13-.33-.2-.25.39-.64.74-.74,1.16-.91,3.64-1.87,7.28-2.63,10.95-1.13,5.44-2.15,10.91-3.11,16.38-.31,1.8-.29,3.66-.44,5.68-.78-.15-1.57-.09-2.1-.43-2.08-1.35-4.15-2.75-6.07-4.32-.54-.44-.83-1.51-.8-2.27.05-1.44.29-2.91.68-4.3,2-7.13,4.08-14.24,6.13-21.36.23-.79.41-1.6.61-2.39-.12-.03-.25-.07-.37-.1-2.23,6.97-4.46,13.94-6.69,20.92.02-2.77,0-5.58.65-8.22,1.36-5.61,3.08-11.14,4.63-16.7.24-.85.37-1.74.55-2.6-1.78,2.65-1.83,5.97-4.13,8.34,1.49-5.14,2.97-10.29,4.4-15.23,1.96.94,3.64,2.2,5.51,2.56,7.43,1.47,14.89,2.94,22.4,3.84,4.14.5,8.45.08,12.4-1.78.43-.2.93-.25,1.4-.36.12.27.22.4.24.54.8,4.9,1.67,9.79,2.38,14.71.49,3.42.64,6.89,1.18,10.31.91,5.78,1.92,11.54,3.05,17.28.49,2.5.49,2.87-1.81,4.05-.44.23-.91.49-1.39.56-3.16.48-6.32,1.04-9.49,1.31-2.44.2-3.11-.63-3.16-3.09-.06-2.92.1-5.86-.22-8.75-.76-6.93-1.73-13.84-2.64-20.76-.16-1.24-.47-2.45-.71-3.68-.18,0-.36-.01-.53-.02-.15.79-.49,1.59-.42,2.36.35,4.26.89,8.5,1.18,12.76.31,4.51.41,9.04.59,13.56.01.34-.01.74-.18,1.03-.24.41-.62.74-.94,1.1-.32-.34-.85-.65-.92-1.04-.41-2.21-.9-4.44-.99-6.68-.22-5.12-.21-10.26-.35-15.39-.03-1.18-.31-2.36-.48-3.54-.14-1.01-.28-2.02-.42-3.03-.16.01-.31.03-.47.04-.05.53-.14,1.05-.14,1.58-.03,7.4-.11,14.79-.03,22.19.03,2.91.33,5.82.7,8.71.19,1.52-.24,2.42-1.63,2.93-3.29,1.18-6.51.79-9.69-.43-1.03-.39-2.05-.8-3.04-1.18-.93-1.99.25-3.75.65-5.64,1.58-7.5,2.26-15.1,2.39-22.76.04-2.31-.09-4.62-.27-6.92-.08-1.02-.47-2.01-.71-3.01-.18.03-.36.07-.55.1.91,10.11-.38,20.1-1.32,30.32ZM104.29,29.11c-.78-.7-1.33-1.18-1.85-1.68-1.45-1.4-2.89-2.82-5.01-3.14-1.52-.23-2.57.67-2.59,2.42,3.97-1.13,6.52,1.63,9.56,3.71-.27,2.14-.58,4.55-.89,6.96,2.42-3.51,2.97-7.45,3.26-11.48.71,4.15.12,8.19-1.21,12.15,2.79.51,2.49-2.34,3.98-3.33-.2.7-.38,1.3-.59,2.03,1.57-.92,2.84-1.85,3.06-3.64,0-.05.14-.09.37-.24-.21,1.15-.39,2.18-.57,3.21.1.02.19.05.29.07.37-.72.74-1.45,1.1-2.17.15,0,.3,0,.45,0,.16.68.49,1.36.45,2.02-.09,1.5-.39,2.98-.52,4.48-.03.35.24.72.37,1.08.22.67.07,1.4-.1,2.12-.27,1.12.05,1.49,1.23,1.17,2.45-.66,3.93-2.19,5.15-4.42.99-1.81,2.64-3.35,4.27-4.68,1.27-1.04,2.49-.58,2.9,1.01.41,1.62.7,3.4.45,5.02-.45,2.98-2.13,5.31-5.05,6.42-1.26.48-2.64.88-3.56-.75-.08-.15-.81-.17-.96,0-.89.99-1.66,2.08-2.53,3.08-2,2.32-3.81,4.86-6.09,6.87-5.66,5-12.51,6.13-19.72,4.86-2.75-.48-5.68-1.33-7.46-3.85-3.71-5.25-4.78-11.21-4.09-17.47.27-2.43.77-4.75.55-7.29-.5-5.86.89-11.54,2.75-17.09.15-.44.52-.86.9-1.16,1.96-1.53,4.17-1.31,6.44-.91,1.24.22,2.52.27,3.78.33,1.85.08,3.74-.22,5.41.98.95.68,2.1,1.09,3.05,1.78.72.52,1.54,1.17,1.84,1.95,1.13,2.93,1.45,6.02,1.19,9.59Zm17.9,154.74s.09-.06.14-.08c-.55-2.79-1.15-5.57-1.62-8.37-.71-4.26-1.33-8.55-3.2-12.51-.41-.88-1.05-1.64-1.58-2.46-.06.05-.11.09-.17.14,1.16,3.21,2.31,6.41,3.47,9.62-.12.04-.24.08-.35.12-.84-2.28-1.67-4.56-2.51-6.84-.68-1.83-1.55-3.41-4.08-3.09,1.52-.81,3.03-1.57,4.61-1.79,7.52-1.03,15.08-1.59,22.67-1.22,2.64.13,5.3.41,7.51,2.22,3.3,2.71,5.16,6.22,5.27,10.41.15,5.67.63,11.22,3.26,16.38.84,1.65.35,3.12-.92,4.2-1.32,1.13-2.75,2.27-4.32,2.95-5.87,2.54-12.05,3.58-18.45,3.62-2.98.02-5.11-1.07-6.51-3.68-.19-.35-.41-.69-.62-1.03-2.15-3.64-3.82-8.63-3.83-11.6.46,1.1.85,2.06,1.24,3.01ZM59.04,61.09c3.15-.42,4.47-2.81,5.2-5.56.2-.74-.35-1.83-.86-2.54-.21-.29-1.41-.23-1.87.08-1.6,1.1-2.8,2.7-2.54,4.67.26,1.97-.98,3.25-1.83,4.46-1.27,1.81-3.15,3.26-4.97,4.59-6.56,4.81-13.82,7.1-21.95,5.25-6.94-1.57-10.83-7.56-9.7-14.55.28-1.74.55-3.48.82-5.22-.12-.03-.24-.06-.36-.08-.23.81-.46,1.63-.69,2.44l-.49-.11c.13-.73.03-1.65.44-2.17,1.04-1.34,1.15-2.84.87-4.3-.7-3.76-.08-7.28,1.49-10.68.16-.36.73-.81,1.06-.77,3.58.4,7.14.92,10.72,1.35.77.09,1.57-.06,2.44-.11-.09,1.14.61,1.62,1.96,1.33.23-.05.5.06.74.12,2.26.61,4.52,1.19,6.76,1.86.85.25,1.65.71,2.27.99.86-.07,1.61-.14,2.23-.19-.21-1.67-.62-3.33-.58-4.99.05-1.91,1.28-2.64,3.02-1.88,2.64,1.17,4.55,3.15,4.73,6.13.13,2.28-.26,4.59-.46,6.88-.09,1.02-.27,2.02-.44,3.22-1.8.91-3.74,2.03-3.37,4.81.26,1.94,1.38,3.1,3.23,3.56.13-1.04.18-2.07.41-3.06.6-2.69,3.03-3.79,4.87-5.37.9-.77,1.95-.28,2.34.87,1.16,3.49.43,6.64-1.85,9.44-.81.99-1.96,1.49-3.31,1.34-.11-.67-.21-1.25-.31-1.84Zm63.17,136.91c.12-.07.23-.13.35-.2,2.37,2.79,5.54,3.11,8.82,2.93,2.05-.11,4.12-.25,6.13-.63,3.68-.7,7.37-1.47,10.98-2.46,1.98-.54,3.83-1.58,5.75-2.4.69,4.22-.4,7.35-3.39,9.24-3.23,2.05-6.78,3.45-10.44,4-5.35.79-10.79.9-16.2,1.28-.72.05-1.44,0-2.33,0q1.95-2.75,1.05-3.99c.06,1.92-1.2,2.73-2.57,3.21-2.5.87-5.08.6-7.53-.23-.53-.18-.94-1.2-1.1-1.9-.56-2.43-.94-4.91-1.49-7.35-.33-1.46-.93-2.87-1.28-4.33-1.39-5.79-2.77-11.59-4.05-17.41-.32-1.47-.26-3.03-.37-4.55.24-.03.49-.05.73-.08.33,1.53.69,3.06.97,4.6.19,1.04.26,2.09.36,3.14.1,1.14.59,1.91,1.83,1.96,1.96.08,3.91.16,5.87.21,1.74.05,2.05-.26,1.55-1.9-.88-2.88-.94-5.83-.85-8.78.02-.6.39-1.19.6-1.79.18.02.37.04.55.06,2.95,11.29,3.95,22.95,5.84,34.44.2-.02.4-.05.61-.07-.13-2.34-.27-4.68-.4-7.02Zm-31.98-94.53c.65.68.72,2.18,2.02,1.01.06-.06.44.17.62.33.59.53,1.23,1.04,1.73,1.65,3,3.7,5.97,7.42,8.94,11.15,1.46,1.83,1.19,6.66-.26,8.28-1.29-.32-2.42-.71-3.58-.87-3.65-.49-6.86-1.78-9.31-5.13v1.41c-1.33.25-2.55.51-3.79.68-.29.04-.69-.12-.91-.32-1.31-1.22-1.08-3.19.49-4.04.83-.46,1.74-.77,2.57-1.22,1.03-.55,1.86-1.3,2.33-2.63-2.42,1.36-4.59,2.58-6.77,3.8-1.41-1.7-1.3-2.69.52-3.89.49-.32,1.12-.44,1.62-.76,1.21-.77,2.37-1.6,3.56-2.41-.13-.21-.26-.43-.39-.64-2.39.82-4.7,1.81-6.7,3.46-1.03-1.61-.86-2.12.9-2.83,1.58-.63,3.18-1.23,4.71-1.97.73-.35,1.32-1.01,2.12-1.65-3.02,1.29-5.75,2.45-8.5,3.62-.72-2.09-.51-2.82.8-3.23,2.63-.83,5.23-1.71,7.29-3.79Zm-12.52-53.56c.23.16.29.18.3.22.27.91.51,1.83.8,2.73,1.6,4.9,4.55,8.44,9.81,9.57,1.61.35,3.26.48,4.87.82.46.1,1.21.57,1.21.86-.02.97.02,2.39-.57,2.82-2.06,1.5-4.43,2.56-6.55,3.99-1.08.72-2.11,1.06-3.36.92-1.32-.15-2.43.2-3.42,1.16-1.54,1.5-3.16,2.92-4.78,4.35-.49.43-1.06.76-1.76,1.26-.09-9.9.05-19.45,3.44-28.69Zm-7.38,140.99c-.19-.4-.44-.79-.56-1.22-1.58-5.32-3.4-10.59-4.63-16-1.28-5.65-2.01-11.44-2.93-17.17-.12-.72-.25-1.71.12-2.2.88-1.17.6-2.05-.28-2.91.6-.57,1.23-.97,1.57-1.55.24-.42.34-1.33.08-1.57-2.3-2.2-1.45-4.66-.27-6.75,1.47-2.6,3.49-4.88,5.28-7.28.03-.04.18.01.17.01.19,2.48.49,4.94.53,7.4.08,4.83.1,9.66-.03,14.48-.19,7.08-.55,14.15-.77,21.23-.03,1.02,0,2.28.54,3.05,2.28,3.29,1.26,6.92,1.17,10.48Zm34.55-22.95c-.06-.19-.14-.33-.14-.46.17-5.12-1.61-9.76-3.64-14.31-3.27-7.33-6.68-14.59-9.98-21.9-.78-1.72-1.36-3.53-2.03-5.3.14-.05.27-.11.41-.16,3.11,7.04,6.23,14.08,9.34,21.11.18-.08.36-.15.54-.23-3.03-6.37-6.44-12.58-8.24-19.79,1.64.5,3.05.93,4.46,1.38.13.04.26.17.33.29.79,1.35,1.65,2.67,2.32,4.08,3.38,7.16,6.79,14.31,10.03,21.54,1.49,3.33,2.63,6.81,3.82,10.26.18.51-.05,1.52-.45,1.82-1.99,1.5-4.24,2.2-6.77,1.67Zm10.06-112.9c-.05.3-.07.58-.14.85-.98,3.55-.82,7.16-.48,10.77.22,2.35-.54,4.25-2.32,5.71-3.88,3.19-8.5,4.84-13.22,6.24-1.42.42-2.88-.37-3.34-1.55-1.34-3.38-1.73-6.74.42-10.05,5.74,1.08,10.58-.69,14.29-5.36,1.68-2.11,3.18-4.36,4.8-6.6Zm-34.36,22.68c.86,2.93,1.63,6.31,2.84,9.52,1.79,4.73,3.87,9.34,5.87,13.98.57,1.32.28,2.22-1,2.8-1.94.88-3.89,1.73-5.99,2.66-.61-1.82-1.13-3.37-1.68-5.01.31.11.53.19,1.13.4-1.77-4.45-3.41-8.59-5.06-12.73-.09-.23-.23-.49-.42-.6-.65-.38-1.73-2.49-1.57-3.18.21.07.41.13.69.22-1.02-5.71.52-9.26,4.93-11.26v4.58c.09,0,.18,0,.27,0v-1.39ZM16.42,110.41c.72-.08,1.76.09,1.98-.26.69-1.09.91-.38,1.36.11,2.1,2.25,4.2,4.49,4.49,7.78.02.23.19.47.35.66.61.73.35,1.35-.33,1.75-2.99,1.74-4.31,4.52-4.87,7.76-.17,1-.7,1.38-1.65,1.31-3.37-.24-5.97-1.72-7.75-4.61.28-.15.6-.25.59-.34-.05-1.24-.07-2.48-.26-3.7-.16-1.03-.38-2.06.64-2.7,1.03-.65,1.2-1.4.96-2.55-.14-.67.02-1.78.46-2.1.82-.58,1.92-1.13,2.92.09.65.8,1.2.34,1.25-.52.05-.88-.08-1.78-.13-2.69Zm30.55,12.45c-1.54-.3-3.33-.56-5.07-1.03-.49-.13-1.03-.81-1.17-1.33-.53-2.03,1.4-4.85,3.56-5.14,1.73-.23,3.04-.77,3.63-2.6.23-.72.81-1.43,1.43-1.89.61-.45,1.49-.87,2.19-.78,1,.13,1.77.79,1.66,2.1-.04.5.33,1.15.71,1.55,1.15,1.24,1.39,2.63.68,4.1-.52,1.08-.89,2.23-1.41,3.3-.21.43-.63,1-1.03,1.07-1.62.3-3.28.43-5.17.65Zm51.93-43.43c.29-.08.82-.17,1.31-.38,3.48-1.51,7.04-2.86,10.38-4.62,2.64-1.4,4.7-3.59,5.65-6.63.14.07.29.14.43.21-.47,1.72-.93,3.45-1.4,5.17.12.05.24.11.36.16.57-1.14,1.14-2.28,1.71-3.42.26.6.32,1.2.09,1.64-1.03,1.94-2.02,3.92-3.27,5.72-2.8,4.05-6.76,6.97-10.43,10.15-.12.1-.37.06-.21.04-1.6-2.78-3.1-5.39-4.62-8.03Zm.58,4.65c.16,0,.33,0,.49,0,.59,2.15,1.19,4.31,1.77,6.47.04.14-.1.42-.23.5-1.71,1.11-3.32,2.49-5.19,3.2-1.29.5-3.24.97-4.22-.75-1.33-2.33-2.38-4.81-3.52-7.16,1.75-1.47,3.27-2.74,5.13-4.3-.35,1.99-.72,3.53-.86,5.09-.14,1.57-.03,3.17-.03,4.75.34-2.89.71-5.77,1.28-8.61.85-4.2.55-3.72,4.5-2.37.08.03.14.13.33.31-.35,1.83-.77,3.74-1.05,5.67-.28,1.94-.43,3.89-.63,5.84.11.02.22.03.33.05.64-2.9,1.27-5.8,1.91-8.69Zm-45.25-13.93c.15-.02.31-.03.46-.05.19.33.39.67.68,1.17.26-1.14.45-2.01.71-3.16.37.6.59.94.83,1.33.17-.61.3-1.08.43-1.55.14.01.28.03.43.04.06.41.19.83.18,1.24-.07,2.4-.05,4.82-.31,7.2-.12,1.11.38,1.66,1,2.33,3.89,4.19,8.65,4.51,13,1.81.49-.31.97-.63,1.8-1.16-.34,3.97-4.3,4.9-5.13,8.01-.71-.42-1.14-.67-1.57-.92-2.37-1.4-4.7-2.88-7.13-4.17-1.02-.54-2.1-.82-2.56-2.07-.13-.37-.72-.64-1.16-.81-1.39-.54-2.32-1.38-2.2-2.99.16-2.09.36-4.17.54-6.25Zm24.2,133.11c-1.22-.19-2.69,0-3.11-.57-1.25-1.73-2.69-3.68-2.97-5.7-.6-4.3-.52-8.69-.7-13.05,0-.19.21-.39.15-.28,1.05.29,1.89.69,2.74.73,1.14.05,1.6.42,1.61,1.61,0,2.06.01,4.14.33,6.15.2,1.28.28,2.4-.38,3.52-.02.03.09.15.2.32.29-.24.56-.47.83-.7.13.03.27.05.4.08-.12,1.65-.23,3.29-.35,4.91-.23.05-.33.1-.42.09-.15-.01-.32-.02-.43-.11-1.56-1.23-2.97-2.54-2.94-4.77.02-1.66.02-3.32-.05-4.98-.04-.89-.25-1.77-.38-2.65-.26,3.14-.39,6.23-.22,9.31.13,2.31,3.2,4.44,5.53,4.01.05.58.09,1.16.16,2.07Zm-42.65-109.43c-2.93.1-5.67-1.19-8.36.9.2-1.62.15-2.92.53-4.07,1.23-3.68,2.52-7.36,4.04-10.93.39-.91,1.7-1.41,2.59-2.1.09.12.18.24.27.36-.07.13-.13.28-.22.39-3.45,4.28-3.89,7.76.03,13.36.39.56.65,1.21,1.12,2.09Zm56.69-22.31c.93-1.08-.19-3.1,1.98-4.04-.17.84-.19,1.3-.35,1.69-.93,2.24-.54,4.43.25,6.6.27.75.69,1.46.88,2.23.1.4,0,1.1-.27,1.31-1.94,1.44-3.95,2.78-6.06,4.24.18-2.32.26-4.48.55-6.62.27-2.07.73-4.13,1.17-6.17.06-.27.5-.64.77-.64.29,0,.65.32.87.59.16.2.16.55.22.82Zm22.4,110.21c-2.38,0-4.38.04-6.37-.04-.29-.01-.76-.6-.81-.96-.2-1.54-.27-3.11-.37-4.51h6.12c.49,1.89.94,3.64,1.43,5.51Zm18.53-27.48c2.18-1.25,4.17-2.38,6.02-3.45.54,1.81,1.1,3.68,1.7,5.69-2.55-.14-4.94-.26-7.33-.42-.23-.02-.59-.28-.62-.48-.25-1.27-.44-2.56-.59-3.85-.02-.19.33-.42.81-.99v3.5Zm-21.18,21.09c-4.48.45-6.53-.73-6.04-3.56,1.67-.33,3.34-.66,4.66-.93.47,1.53.92,2.97,1.38,4.49ZM4.39,154.36c.22.38.62.75.67,1.17.58,4.46.69,8.91-.46,13.3-.1.37-.42.69-.7,1.14.17-5.31.33-10.38.49-15.62Zm103.95-68.15c3.08-3.67,6.18-7.38,9.28-11.07-.02,3.19-5.5,9.71-9.28,11.07Zm-3.79,82.31c2.94.76,5.53-.02,7.88-1.82.57,1.53.5,2.66-1.28,2.97-1.7.3-3.39.65-5.1.86-1.47.18-1.83-.65-1.49-2.01Zm-96.97,10.42c.16.06.33.12.49.18-2.02,5.37-4.03,10.73-6.05,16.1-.23-.08-.46-.17-.69-.25,1.46-5.57,4.21-10.67,6.25-16.03Zm23.05-70.58c-.03.13-.07.25-.1.38-.97-.14-2.12-.67-2.85-.32-.69.34-.93,1.6-1.31,2.33-.94-2.03-2.47-.58-3.66.02.06-.67.26-1.3.14-1.87-.14-.63-.56-1.21-.86-1.81.11-.06.21-.12.32-.18.39.55.8,1.09,1.15,1.66.66,1.05,1.71.87,2.54.56.9-.33,1.38-1.12.79-2.19-.17-.31-.16-.72-.28-1.35.72.9,1.11,1.71,1.76,2.13.65.42,1.56.44,2.35.64Zm111.71,48.49c-1.84-2.57-3.05-9.18-2.26-10.85.71,3.43,1.45,6.99,2.26,10.85ZM27.17,111.71c3.98,1.29,4.66,1.93,3.9,4.1-.43-1.84-1.37-2.86-3.05-3.04-2.27-.25-1.7,1.94-2.47,3.07-.86-2,.44-3,1.63-4.13Zm11.32-2.92c.06.14.12.28.19.43-.19.5-.37,1-.62,1.65-1.64-.25-3.4-.07-5.04-1.35,1.96-1.04,3.88,1.43,5.47-.73ZM6.29,153.9c-1.39-.59-1.75-1.47-1.62-2.51.05-.37.61-.99.87-.96.45.05.85.53,1.27.83-.29.31-.58.63-.81.87.08.47.16.99.29,1.77Zm12.4-102.64c.1-1.79.19-3.39.28-4.99,1.33,1.37,1.1,4.1-.28,4.99Zm58.73-19.43c.19,0,.39,0,.58,0-.37,2.04.94,4,.37,6.05-.22.01-.44.02-.66.03-.1-2.03-.19-4.05-.29-6.08Zm-39.38,79.9c-.82.88-4.25.48-4.66-.16-.09-.14.15-.68.17-.68,1.5.26,2.99.55,4.48.84Zm.61-4.37c.62-.54,1.02-1.11,1.26-1.05.48.13.87.6,1.3.92-.31.39-.61,1.07-.94,1.08-.43.02-.88-.49-1.61-.95Zm49.28-24.31c-.15,0-.3,0-.45,0,.15-1.74.3-3.47.45-5.21.14.01.28.03.43.04-.14,1.72-.29,3.45-.43,5.17Zm-56.04,32.98c.5-1.08,1.03-2.19,1.66-3.55.36,2.58-.33,3.74-1.66,3.55Zm-23.08,33.79c-.04.15-.08.3-.12.46-1.48-.51-2.97-1.01-4.45-1.52.03-.09.07-.18.1-.27,1.49.45,2.98.89,4.47,1.34Zm-4.13-2.42c1.67.41,3.25.8,5.02,1.23-1.96.34-3.48-.34-5.02-1.23Zm27.55-43.5c.59-.47.97-1,1.25-.95.34.06.72.58.82.97.05.21-.47.8-.71.79-.37-.02-.73-.41-1.36-.81Zm-25.09,43.19c-.2-.16-.39-.31-.59-.47.34-.42.67-.85,1.01-1.27.16.21.49.51.44.61-.22.41-.56.76-.85,1.13Z"/>
      <path class="cls-2" d="m99.85,222.16c.11-.99.3-1.98.3-2.97,0-5.53.04-11.06-.1-16.59-.12-4.66-.46-9.31-.7-13.96-.04-.87-.34-1.91,1.27-2.1-2.99-1.35-5.96-2.35-9.06-2.9-.09.19-.18.37-.26.56,1.15.6,2.31,1.21,3.59,1.88-.69.97-.02,1.32.8,1.35,1,.04,1.29.61,1.38,1.43.55,4.99,1.27,9.97,1.6,14.97.37,5.61.4,11.25.58,16.87.02.48.13.96.2,1.43.13.01.27.02.4.03Z"/>
      <path class="cls-1" d="m25.46,200.86c.94-10.22,2.24-20.21,1.32-30.32.18-.03.36-.07.55-.1.25,1,.64,1.99.71,3.01.18,2.3.31,4.62.27,6.92-.13,7.65-.81,15.26-2.39,22.76-.4,1.89-1.58,3.65-.65,5.64.98.38,2.01.79,3.04,1.18,3.18,1.22,6.4,1.62,9.69.43,1.4-.5,1.83-1.4,1.63-2.93-.37-2.89-.67-5.8-.7-8.71-.08-7.4,0-14.79.03-22.19,0-.53.09-1.05.14-1.58.16-.01.31-.03.47-.04.14,1.01.28,2.02.42,3.03.17,1.18.45,2.35.48,3.54.14,5.13.13,10.26.35,15.39.1,2.24.59,4.46.99,6.68.07.39.6.69.92,1.04.32-.36.7-.69.94-1.1.16-.28.19-.68.18-1.03-.18-4.52-.28-9.05-.59-13.56-.29-4.26-.83-8.5-1.18-12.76-.06-.77.27-1.57.42-2.36.18,0,.36.01.53.02.24,1.23.55,2.44.71,3.68.91,6.91,1.88,13.82,2.64,20.76.32,2.89.16,5.83.22,8.75.05,2.46.72,3.3,3.16,3.09,3.18-.26,6.34-.83,9.49-1.31.48-.07.95-.33,1.39-.56,2.3-1.18,2.3-1.55,1.81-4.05-1.12-5.74-2.14-11.5-3.05-17.28-.54-3.41-.68-6.89-1.18-10.31-.71-4.91-1.57-9.81-2.38-14.71-.02-.14-.12-.27-.24-.54-.46.12-.97.16-1.4.36-3.96,1.86-8.26,2.28-12.4,1.78-7.51-.9-14.97-2.37-22.4-3.84-1.86-.37-3.55-1.63-5.51-2.56-1.43,4.94-2.91,10.08-4.4,15.23,2.29-2.36,2.35-5.69,4.13-8.34-.18.87-.32,1.75-.55,2.6-1.55,5.57-3.26,11.09-4.63,16.7-.64,2.64-.63,5.44-.65,8.22,2.23-6.97,4.46-13.94,6.69-20.92.12.03.25.07.37.1-.2.8-.38,1.6-.61,2.39-2.05,7.12-4.12,14.23-6.13,21.36-.39,1.39-.63,2.86-.68,4.3-.03.76.26,1.83.8,2.27,1.92,1.56,3.99,2.96,6.07,4.32.53.34,1.32.28,2.1.43.15-2.02.12-3.88.44-5.68.96-5.48,1.98-10.94,3.11-16.38.76-3.67,1.72-7.31,2.63-10.95.11-.42.49-.78.74-1.16.11.07.22.13.33.2-.38,3.84-.89,7.67-1.11,11.52-.2,3.51-.06,7.04-.09,10.56-.03,2.66,1.06,4.85,3,7.01Z"/>
      <path class="cls-1" d="m104.29,29.11c.25-3.57-.06-6.66-1.19-9.59-.3-.78-1.12-1.43-1.84-1.95-.95-.68-2.09-1.1-3.05-1.78-1.68-1.2-3.56-.9-5.41-.98-1.26-.05-2.54-.1-3.78-.33-2.27-.41-4.48-.62-6.44.91-.38.29-.75.72-.9,1.16-1.86,5.54-3.25,11.23-2.75,17.09.22,2.55-.28,4.86-.55,7.29-.69,6.26.38,12.22,4.09,17.47,1.78,2.52,4.71,3.37,7.46,3.85,7.21,1.27,14.05.14,19.72-4.86,2.28-2.01,4.09-4.55,6.09-6.87.87-1.01,1.64-2.09,2.53-3.08.15-.17.88-.14.96,0,.92,1.64,2.31,1.23,3.56.75,2.93-1.12,4.6-3.44,5.05-6.42.25-1.62-.04-3.4-.45-5.02-.41-1.59-1.63-2.05-2.9-1.01-1.63,1.33-3.28,2.87-4.27,4.68-1.23,2.24-2.71,3.77-5.15,4.42-1.18.32-1.5-.06-1.23-1.17.17-.72.33-1.45.1-2.12-.13-.36-.4-.73-.37-1.08.14-1.5.44-2.98.52-4.48.04-.66-.29-1.35-.45-2.02-.15,0-.3,0-.45,0-.37.72-.74,1.45-1.1,2.17-.1-.02-.19-.05-.29-.07.18-1.03.37-2.06.57-3.21-.23.15-.36.18-.37.24-.22,1.79-1.49,2.72-3.06,3.64.21-.73.39-1.33.59-2.03-1.49.99-1.19,3.85-3.98,3.33,1.33-3.96,1.92-8,1.21-12.15-.29,4.03-.84,7.98-3.26,11.48.31-2.41.61-4.82.89-6.96-3.04-2.07-5.59-4.84-9.56-3.71.01-1.74,1.06-2.65,2.59-2.42,2.12.32,3.56,1.74,5.01,3.14.52.5,1.08.98,1.85,1.68Zm23.26,10.96c-.17,3.27-2.12,5.06-4.35,6.6-.46.32-1.3.1-1.97.13-.01-.62-.11-1.25,0-1.86.14-.88.34-1.77.66-2.6.48-1.23.97-2.49,1.68-3.6.54-.84,1.57-1.62,2.54-1.01.69.43.98,1.53,1.44,2.33Zm-46.56.89c-.4,1.36.04,2.3.89,2.99.77.63,1.68,1.1,2.59,1.68-1.94.41-3.73-.67-4.51-2.64-.4-1.01-.53-2.12.5-2.69,1.07-.61,2.16-.21,3.22.91-1.05-.09-1.82-.16-2.69-.24Zm14.15-2.45c.03-.64-.05-1.22.1-1.73.26-.88.66-1.72,1.05-2.54.04-.08.71,0,.74.1.23.93.64,1.91.52,2.81-.27,2.01-.63,2.14-2.41,1.36Zm-.23,15.98c-.03.19-.06.37-.09.56-3.13-.91-6.27-1.81-9.4-2.72l.17-.6c3.23.46,6.29,1.57,9.32,2.77Zm-11.4-17.2c-.96-1.36-.67-2.86-.47-4.32.02-.13.69-.37.86-.26,1.14.73.9,3.78-.39,4.58Zm-2.02-10.81c.06-1.42.59-2.39,1.65-2.84.47-.2,1.29.01,1.75.33.85.57,1.05,1.55.77,2.5-1.54-1.56-1.44-2.31-4.17.02Z"/>
      <path class="cls-1" d="m122.19,183.85c-.39-.95-.79-1.91-1.24-3.01.01,2.97,1.69,7.96,3.83,11.6.2.35.43.68.62,1.03,1.39,2.61,3.53,3.7,6.51,3.68,6.4-.04,12.58-1.08,18.45-3.62,1.58-.68,3-1.82,4.32-2.95,1.27-1.09,1.76-2.56.92-4.2-2.63-5.15-3.11-10.7-3.26-16.38-.11-4.2-1.96-7.71-5.27-10.41-2.21-1.81-4.87-2.09-7.51-2.22-7.59-.36-15.15.19-22.67,1.22-1.58.22-3.09.98-4.61,1.79,2.53-.31,3.41,1.26,4.08,3.09.84,2.28,1.68,4.56,2.51,6.84.12-.04.24-.08.35-.12-1.16-3.21-2.31-6.41-3.47-9.62.06-.05.11-.09.17-.14.53.82,1.17,1.59,1.58,2.46,1.87,3.96,2.49,8.24,3.2,12.51.47,2.8,1.08,5.58,1.62,8.37-.05.03-.09.06-.14.08Zm9.34,10.73c3.95-.38,8-.29,11.75-1.27,3.73-.98,7.17-3.05,10.98-4.74-.74,1.98-1.95,3.24-3.52,4.16-5.75,3.36-12.03,2.86-18.28,2.38-.35-.03-.67-.37-.92-.52Zm18.58-9.53c-3.62,1.9-17.29.09-18.78-2.44,3.17.39,6.17.76,9.17,1.13,0,.16,0,.31,0,.47-.44.13-.88.25-1.32.38,1.76.26,3.51.4,5.26.45,1.74.05,3.49.01,5.66.01Zm-10.76-16.8h-4.27c.15-1.53.27-2.8.4-4.17.42-.24.99-.57,1.71-.98.52.46,1.34.85,1.54,1.44.38,1.11.41,2.34.62,3.71Zm2.98,2.04c-2.56,1.8-11.16,2.43-12,1.1,3.94-.36,8.05-.74,12-1.1Zm-12.45-7.12c3.68-1.01,7.38-1.54,11.52-.51-4.11.18-7.81.35-11.52.51Zm1.23,32.54c-3.12-.2-6.82-4.01-6.84-6.9,1.35,3.23,3.79,5.37,6.84,6.9Zm10.76-32.85c1.67,1.42,2.31,5.4,1.17,6.49-.38-2.11-.78-4.33-1.17-6.49Zm-6.47,6.18h3.81l.04.49c-1.26.27-2.51.53-3.86.82v-1.31Zm-6.34-4.48c.17-.03.35-.06.52-.1.44,1.64.87,3.28,1.31,4.92-.15.04-.3.08-.46.12-.46-1.65-.92-3.3-1.38-4.95Z"/>
      <path class="cls-1" d="m59.04,61.09c.1.59.2,1.17.31,1.84,1.35.15,2.5-.35,3.31-1.34,2.29-2.79,3.01-5.95,1.85-9.44-.38-1.16-1.43-1.64-2.34-.87-1.84,1.57-4.27,2.68-4.87,5.37-.22.99-.27,2.02-.41,3.06-1.86-.46-2.97-1.62-3.23-3.56-.37-2.78,1.57-3.89,3.37-4.81.17-1.2.35-2.21.44-3.22.2-2.29.59-4.61.46-6.88-.17-2.98-2.08-4.96-4.73-6.13-1.74-.77-2.97-.04-3.02,1.88-.04,1.66.37,3.32.58,4.99-.63.05-1.38.12-2.23.19-.62-.28-1.42-.74-2.27-.99-2.24-.67-4.5-1.25-6.76-1.86-.24-.07-.51-.17-.74-.12-1.35.29-2.05-.2-1.96-1.33-.87.05-1.67.2-2.44.11-3.58-.43-7.14-.94-10.72-1.35-.33-.04-.9.41-1.06.77-1.57,3.4-2.19,6.93-1.49,10.68.27,1.46.17,2.96-.87,4.3-.4.52-.31,1.43-.44,2.17l.49.11c.23-.81.46-1.63.69-2.44.12.03.24.06.36.08-.27,1.74-.54,3.48-.82,5.22-1.13,6.99,2.76,12.98,9.7,14.55,8.13,1.84,15.39-.44,21.95-5.25,1.82-1.33,3.7-2.79,4.97-4.59.85-1.21,2.09-2.49,1.83-4.46-.26-1.97.94-3.57,2.54-4.67.46-.32,1.66-.38,1.87-.08.51.7,1.06,1.8.86,2.54-.73,2.75-2.05,5.14-5.2,5.56Zm-31.67,2.53l.4-.67c1.44.8,2.99,1.45,4.28,2.44.98.75.81,2.45-.04,2.47-.97.02-2.09-.44-2.89-1.03-.5-.37-.53-1.36-.77-2.08.12-.04.24-.09.36-.13-.45-.33-.9-.67-1.35-1Zm12.82-21.71c.36-.3.71-.59.91-.76,2.01,1.43,3.9,2.78,5.8,4.13-1.38,1.45-2.59.82-6.71-3.37Zm.33,10.11c.51.28,1.13.61,1.75.94-.77.1-1.42-.08-2.07-.25-1.9-.47-2.53-2.05-1.42-3.73.23-.35.83-.75,1.16-.68.35.08.77.68.8,1.08.07.77-.11,1.57-.22,2.63Zm-14.37,5.33c-.11.09-.23.18-.34.28-1.47-.62-2.27-1.81-2.68-3.32-.4-1.49.09-2.75,1.14-3.02,1.2-.31,3.11.79,3.54,2.16-.76-.35-1.4-.71-2.08-.94-.43-.15-1.16-.3-1.34-.1-.3.35-.46,1.05-.33,1.49.25.78.74,1.49,1.17,2.21.27.44.61.83.93,1.24Zm-1.85-7.61c1.48-.28.84-1.46,1.08-2.23.17-.52.65-.94.99-1.41.37.44.96.84,1.07,1.34.44,2-.31,2.74-2.26,2.42-.29-.05-.59-.07-.88-.11Zm4.5-8.74c-1.43,1.49-2.99,2.04-4.93,1.37,1.31-1.45,3.65-2.13,4.93-1.37Zm.33,10.64c-.06-.98-.12-1.97-.2-3.36,1.13,1.35,1.2,2.35.2,3.36Z"/>
      <path class="cls-1" d="m122.21,198c.13,2.34.27,4.68.4,7.02-.2.02-.4.05-.61.07-1.89-11.49-2.9-23.15-5.84-34.44-.18-.02-.37-.04-.55-.06-.21.6-.58,1.19-.6,1.79-.1,2.96-.04,5.9.85,8.78.5,1.65.19,1.95-1.55,1.9-1.96-.05-3.92-.14-5.87-.21-1.25-.05-1.73-.82-1.83-1.96-.1-1.05-.17-2.11-.36-3.14-.28-1.54-.64-3.07-.97-4.6-.24.03-.49.05-.73.08.11,1.52.05,3.07.37,4.55,1.28,5.82,2.66,11.61,4.05,17.41.35,1.46.94,2.86,1.28,4.33.55,2.44.93,4.91,1.49,7.35.16.7.57,1.72,1.1,1.9,2.45.83,5.03,1.1,7.53.23,1.36-.47,2.62-1.29,2.57-3.21q.9,1.24-1.05,3.99c.89,0,1.62.04,2.33,0,5.4-.38,10.85-.49,16.2-1.28,3.67-.54,7.21-1.95,10.44-4,2.99-1.9,4.07-5.03,3.39-9.24-1.92.82-3.76,1.86-5.75,2.4-3.62.99-7.3,1.76-10.98,2.46-2.01.38-4.08.52-6.13.63-3.28.17-6.45-.14-8.82-2.93-.12.07-.23.13-.35.2Z"/>
      <path class="cls-1" d="m90.23,103.47c-2.06,2.09-4.66,2.96-7.29,3.79-1.31.41-1.53,1.14-.8,3.23,2.75-1.17,5.48-2.34,8.5-3.62-.81.64-1.39,1.3-2.12,1.65-1.53.74-3.13,1.33-4.71,1.97-1.76.71-1.93,1.23-.9,2.83,2-1.65,4.31-2.65,6.7-3.46.13.21.26.43.39.64-1.18.81-2.35,1.64-3.56,2.41-.5.32-1.13.43-1.62.76-1.82,1.2-1.93,2.18-.52,3.89,2.17-1.22,4.34-2.44,6.77-3.8-.47,1.33-1.3,2.08-2.33,2.63-.83.45-1.74.77-2.57,1.22-1.56.86-1.8,2.82-.49,4.04.22.21.63.36.91.32,1.24-.18,2.46-.44,3.79-.68v-1.41c2.45,3.35,5.66,4.64,9.31,5.13,1.17.16,2.3.55,3.58.87,1.45-1.62,1.72-6.45.26-8.28-2.97-3.72-5.94-7.45-8.94-11.15-.5-.62-1.14-1.12-1.73-1.65-.18-.16-.56-.38-.62-.33-1.31,1.17-1.37-.32-2.02-1.01Z"/>
      <path class="cls-1" d="m38.3,94.24c1.43-1.14,2.82-2.34,4.31-3.4,2.28-1.63,4.76-3,6.91-4.77,2.07-1.7,3.37-4.04,3.37-6.82,0-1.19-.53-2.38-.62-3.58-.11-1.57-.03-3.16-.03-5.05-4.73,3.87-9.73,5.51-15.58,4.43-.22.82-.35,1.78-.72,2.62-.41.94-.95,1.84-1.59,2.65-1.27,1.62-1.72,3.5-1.35,5.39.6,3.1,2.3,5.74,4.15,8.26.18.25.58.33.88.49.09-.07.17-.14.26-.22Z"/>
      <path class="cls-1" d="m70.33,190.9c.09-3.56,1.11-7.19-1.17-10.48-.54-.78-.57-2.03-.54-3.05.22-7.08.58-14.15.77-21.23.13-4.82.11-9.65.03-14.48-.04-2.46-.34-4.92-.53-7.4,0,0-.14-.05-.17-.01-1.79,2.41-3.82,4.69-5.28,7.28-1.18,2.09-2.03,4.56.27,6.75.26.25.16,1.15-.08,1.57-.34.58-.97.99-1.57,1.55.88.86,1.16,1.74.28,2.91-.37.49-.24,1.47-.12,2.2.92,5.73,1.65,11.52,2.93,17.17,1.23,5.4,3.05,10.67,4.63,16,.13.42.37.81.56,1.22Z"/>
      <path class="cls-1" d="m104.89,167.95c2.53.53,4.79-.17,6.77-1.67.4-.3.63-1.31.45-1.82-1.19-3.45-2.34-6.93-3.82-10.26-3.23-7.23-6.64-14.38-10.03-21.54-.67-1.41-1.53-2.73-2.32-4.08-.07-.12-.2-.25-.33-.29-1.41-.45-2.82-.87-4.46-1.38,1.8,7.2,5.21,13.42,8.24,19.79-.18.08-.36.15-.54.23-3.11-7.04-6.23-14.08-9.34-21.11-.14.05-.27.11-.41.16.67,1.77,1.25,3.58,2.03,5.3,3.3,7.31,6.71,14.57,9.98,21.9,2.03,4.54,3.8,9.19,3.64,14.31,0,.14.08.28.14.46Zm-4.98-27.73c.2-.09.4-.18.6-.27,2.57,5.58,5.15,11.17,7.72,16.75l-.36.17c-2.65-5.55-5.31-11.1-7.96-16.65Zm5.01,19.08c.14-.04.29-.08.43-.12.24,2.31.49,4.63.73,6.94-.1.01-.21.02-.31.03-.29-2.28-.57-4.57-.86-6.85Z"/>
      <path class="cls-1" d="m114.95,55.05c-1.63,2.25-3.12,4.5-4.8,6.6-3.71,4.66-8.55,6.43-14.29,5.36-2.14,3.31-1.76,6.67-.42,10.05.47,1.18,1.92,1.97,3.34,1.55,4.72-1.4,9.34-3.05,13.22-6.24,1.78-1.46,2.54-3.36,2.32-5.71-.34-3.6-.5-7.22.48-10.77.07-.27.09-.55.14-.85Zm-17.04,23.13c-.54-.43-.88-.7-1.22-.97.56-.36,1.09-.84,1.7-1.03.27-.08.72.41,1.09.64-.48.41-.96.83-1.57,1.35Z"/>
      <path class="cls-1" d="m80.59,77.72v1.39c-.09,0-.18,0-.27,0v-4.58c-4.41,2-5.95,5.55-4.93,11.26-.27-.09-.48-.15-.69-.22-.16.69.92,2.8,1.57,3.18.19.11.33.38.42.6,1.65,4.14,3.29,8.28,5.06,12.73-.6-.21-.82-.29-1.13-.4.55,1.64,1.07,3.19,1.68,5.01,2.09-.93,4.05-1.78,5.99-2.66,1.28-.58,1.57-1.48,1-2.8-2-4.64-4.08-9.26-5.87-13.98-1.21-3.21-1.98-6.59-2.84-9.52Zm-.68,5.1c.14-.06.28-.11.42-.17,2.3,5.28,4.59,10.57,6.89,15.85-.19.08-.38.16-.57.24-2.19-5.33-5.12-10.35-6.74-15.92Z"/>
      <path class="cls-1" d="m16.42,110.41c.05.91.18,1.8.13,2.69-.05.86-.6,1.31-1.25.52-1-1.22-2.09-.67-2.92-.09-.45.32-.6,1.43-.46,2.1.23,1.15.07,1.9-.96,2.55-1.02.64-.8,1.67-.64,2.7.19,1.22.21,2.46.26,3.7,0,.09-.32.19-.59.34,1.78,2.88,4.39,4.37,7.75,4.61.95.07,1.48-.31,1.65-1.31.56-3.24,1.88-6.02,4.87-7.76.68-.39.95-1.02.33-1.75-.16-.19-.33-.43-.35-.66-.29-3.3-2.39-5.54-4.49-7.78-.45-.48-.68-1.2-1.36-.11-.22.35-1.26.18-1.98.26Z"/>
      <path class="cls-1" d="m38.3,94.24c-.09.07-.17.14-.26.22-.07.24-.13.48-.24.86,4.89-1.75,9.05-.84,12.15,3.24.7-.98,1.31-1.92,2.01-2.79,3.03-3.81,4.61-8.16,5.06-12.98.14-1.54-.07-2.7-1.9-2.92-.31-.04-.59-.3-1.06-.55.93,3.45-1.03,5.52-3.2,7.34-1.68,1.41-3.58,2.57-5.47,3.69-2.32,1.38-4.73,2.6-7.1,3.89Z"/>
      <path class="cls-1" d="m46.97,122.86c1.89-.22,3.54-.35,5.17-.65.4-.07.82-.64,1.03-1.07.53-1.07.89-2.22,1.41-3.3.71-1.47.47-2.86-.68-4.1-.37-.41-.75-1.05-.71-1.55.11-1.31-.66-1.97-1.66-2.1-.69-.09-1.58.33-2.19.78-.61.46-1.19,1.17-1.43,1.89-.6,1.83-1.9,2.37-3.63,2.6-2.16.29-4.1,3.11-3.56,5.14.14.53.68,1.2,1.17,1.33,1.74.47,3.53.73,5.07,1.03Z"/>
      <path class="cls-1" d="m98.89,79.43c1.52,2.64,3.02,5.25,4.62,8.03-.16.02.09.06.21-.04,3.67-3.18,7.62-6.1,10.43-10.15,1.25-1.8,2.24-3.78,3.27-5.72.24-.44.17-1.04-.09-1.64-.57,1.14-1.14,2.28-1.71,3.42-.12-.05-.24-.11-.36-.16.47-1.72.93-3.45,1.4-5.17-.14-.07-.29-.14-.43-.21-.95,3.04-3.01,5.23-5.65,6.63-3.34,1.77-6.9,3.12-10.38,4.62-.49.21-1.02.3-1.31.38Z"/>
      <path class="cls-1" d="m99.47,84.08c-.64,2.9-1.27,5.8-1.91,8.69-.11-.02-.22-.03-.33-.05.2-1.95.35-3.9.63-5.84.28-1.93.71-3.84,1.05-5.67-.19-.18-.25-.28-.33-.31-3.95-1.35-3.65-1.82-4.5,2.37-.57,2.84-.95,5.72-1.28,8.61,0-1.58-.11-3.18.03-4.75.13-1.56.51-3.11.86-5.09-1.86,1.56-3.38,2.83-5.13,4.3,1.14,2.35,2.19,4.83,3.52,7.16.98,1.72,2.93,1.24,4.22.75,1.86-.72,3.48-2.09,5.19-3.2.13-.09.27-.36.23-.5-.57-2.16-1.17-4.31-1.77-6.47-.16,0-.33,0-.49,0Z"/>
      <path class="cls-1" d="m54.22,70.14c-.18,2.08-.38,4.17-.54,6.25-.12,1.61.81,2.45,2.2,2.99.44.17,1.02.44,1.16.81.46,1.25,1.54,1.53,2.56,2.07,2.43,1.29,4.76,2.77,7.13,4.17.43.25.86.51,1.57.92.83-3.11,4.79-4.04,5.13-8.01-.82.53-1.3.86-1.8,1.16-4.36,2.7-9.12,2.39-13-1.81-.62-.67-1.13-1.21-1-2.33.26-2.38.24-4.8.31-7.2.01-.41-.12-.83-.18-1.24-.14-.01-.28-.03-.43-.04-.13.47-.26.95-.43,1.55-.25-.4-.46-.74-.83-1.33-.26,1.15-.45,2.02-.71,3.16-.29-.5-.48-.83-.68-1.17-.15.02-.31.03-.46.05Z"/>
      <path class="cls-1" d="m78.43,203.26c-.07-.91-.11-1.48-.16-2.07-2.33.43-5.4-1.71-5.53-4.01-.18-3.08-.04-6.18.22-9.31.13.88.34,1.76.38,2.65.07,1.66.07,3.32.05,4.98-.03,2.22,1.38,3.54,2.94,4.77.11.08.28.09.43.11.09,0,.19-.04.42-.09.11-1.62.23-3.26.35-4.91-.13-.03-.27-.05-.4-.08-.27.23-.54.46-.83.7-.11-.17-.22-.28-.2-.32.67-1.12.59-2.24.38-3.52-.32-2.02-.32-4.1-.33-6.15,0-1.19-.47-1.55-1.61-1.61-.85-.04-1.68-.43-2.74-.73.07-.11-.15.09-.15.28.18,4.36.1,8.75.7,13.05.28,2.02,1.72,3.97,2.97,5.7.42.58,1.9.38,3.11.57Z"/>
      <path class="cls-1" d="m35.78,93.83c-.46-.88-.72-1.53-1.12-2.09-3.92-5.6-3.48-9.09-.03-13.36.09-.11.15-.26.22-.39-.09-.12-.18-.24-.27-.36-.89.69-2.21,1.2-2.59,2.1-1.52,3.57-2.81,7.24-4.04,10.93-.39,1.16-.34,2.46-.53,4.07,2.68-2.1,5.43-.8,8.36-.9Z"/>
      <path class="cls-1" d="m92.46,71.51c-.07-.27-.06-.62-.22-.82-.22-.27-.57-.59-.87-.59-.27,0-.71.37-.77.64-.44,2.05-.9,4.1-1.17,6.17-.28,2.13-.36,4.29-.55,6.62,2.11-1.46,4.12-2.8,6.06-4.24.28-.2.37-.9.27-1.31-.19-.77-.6-1.48-.88-2.23-.79-2.17-1.18-4.35-.25-6.6.16-.39.18-.85.35-1.69-2.17.94-1.05,2.96-1.98,4.04Z"/>
      <path class="cls-1" d="m24.86,98.36c1.19.38,2.36.86,3.58,1.12,2.8.6,5.74.77,8.41,1.71,3.23,1.14,6.49,1.51,9.83,1.69.51.03,1.01.36,1.73.62-.14-.42-.23-.68-.45-1.35,1.44.22,2.68.42,3.93.61,0,.14-.01.28-.02.42h-2.46c0,.14.01.29.02.43h5.81c-1.65-1.7-3.41-2.11-5.13-2.48-2.98-.64-5.98-1.17-8.98-1.7-5.23-.93-10.46-1.82-15.69-2.72-.38-.07-.77-.05-1.19.14,5.26.97,10.51,1.94,15.9,2.94-2.53.78-9.97-.01-13.95-1.43-.45,0-.89,0-1.34,0Z"/>
      <path class="cls-1" d="m114.86,181.72c-.48-1.87-.94-3.62-1.43-5.51h-6.12c.11,1.4.18,2.96.37,4.51.05.36.51.95.81.96,1.99.09,3.99.04,6.37.04Z"/>
      <path class="cls-1" d="m133.39,154.24v-3.5c-.48.57-.83.8-.81.99.14,1.29.34,2.58.59,3.85.04.2.4.46.62.48,2.39.16,4.78.28,7.33.42-.6-2.01-1.16-3.88-1.7-5.69-1.86,1.06-3.84,2.2-6.02,3.45Z"/>
      <path class="cls-1" d="m112.22,175.33c-.47-1.51-.91-2.96-1.38-4.49-1.32.26-2.99.59-4.66.93-.49,2.84,1.56,4.01,6.04,3.56Z"/>
      <path class="cls-1" d="m4.39,154.36c-.16,5.24-.32,10.31-.49,15.62.29-.45.61-.77.7-1.14,1.15-4.4,1.04-8.85.46-13.3-.05-.42-.45-.8-.67-1.17Z"/>
      <path class="cls-1" d="m108.35,86.21c3.78-1.37,9.26-7.88,9.28-11.07-3.1,3.69-6.2,7.4-9.28,11.07Z"/>
      <path class="cls-1" d="m104.55,168.52c-.34,1.37.03,2.19,1.49,2.01,1.71-.21,3.4-.56,5.1-.86,1.78-.31,1.85-1.44,1.28-2.97-2.35,1.8-4.94,2.58-7.88,1.82Z"/>
      <path class="cls-1" d="m7.58,178.93c-2.04,5.36-4.79,10.45-6.25,16.03.23.08.46.17.69.25,2.02-5.37,4.03-10.73,6.05-16.1-.16-.06-.33-.12-.49-.18Z"/>
      <path class="cls-1" d="m30.63,108.36c-.79-.2-1.7-.22-2.35-.64-.65-.41-1.04-1.22-1.76-2.13.12.63.1,1.04.28,1.35.59,1.06.11,1.85-.79,2.19-.83.31-1.88.49-2.54-.56-.36-.57-.77-1.11-1.15-1.66-.11.06-.21.12-.32.18.3.6.73,1.17.86,1.81.12.57-.08,1.2-.14,1.87,1.19-.61,2.72-2.06,3.66-.02.38-.73.62-1.99,1.31-2.33.72-.35,1.88.18,2.85.32.03-.13.07-.25.1-.38Z"/>
      <path class="cls-1" d="m142.34,156.84c-.8-3.86-1.54-7.43-2.26-10.85-.8,1.68.42,8.28,2.26,10.85Z"/>
      <path class="cls-1" d="m27.17,111.71c-1.19,1.13-2.48,2.12-1.63,4.13.78-1.13.21-3.32,2.47-3.07,1.68.19,2.63,1.21,3.05,3.04.76-2.17.08-2.81-3.9-4.1Z"/>
      <path class="cls-1" d="m38.49,108.79c-1.6,2.15-3.51-.31-5.47.73,1.64,1.28,3.4,1.1,5.04,1.35.24-.65.43-1.15.62-1.65-.06-.14-.12-.28-.19-.43Z"/>
      <path class="cls-1" d="m6.29,153.9c-.13-.77-.21-1.29-.29-1.77.23-.25.52-.56.81-.87-.42-.3-.82-.77-1.27-.83-.26-.03-.82.59-.87.96-.13,1.03.23,1.92,1.62,2.51Z"/>
      <path class="cls-1" d="m18.7,51.25c1.38-.89,1.61-3.62.28-4.99-.09,1.6-.18,3.2-.28,4.99Z"/>
      <path class="cls-1" d="m77.42,31.83c.1,2.03.19,4.05.29,6.08.22-.01.44-.02.66-.03.57-2.04-.73-4.01-.37-6.05-.19,0-.39,0-.58,0Z"/>
      <path class="cls-1" d="m38.04,111.72c-1.49-.29-2.98-.58-4.48-.84-.03,0-.26.54-.17.68.41.64,3.84,1.04,4.66.16Z"/>
      <path class="cls-1" d="m38.66,107.36c.73.47,1.19.98,1.61.95.33-.02.63-.7.94-1.08-.43-.33-.82-.8-1.3-.92-.24-.06-.64.51-1.26,1.05Z"/>
      <path class="cls-1" d="m24.86,98.36c.45,0,.89,0,1.34,0h2.07l.04-.29c-2.19-.42-4.37-.84-6.56-1.26-.02.08-.04.15-.06.23,1.06.44,2.11.87,3.17,1.31Z"/>
      <path class="cls-1" d="m87.94,83.05c.14-1.72.29-3.45.43-5.17-.14-.01-.28-.03-.43-.04-.15,1.74-.3,3.47-.45,5.21.15,0,.3,0,.45,0Z"/>
      <path class="cls-1" d="m31.9,116.02c1.33.19,2.02-.97,1.66-3.55-.64,1.36-1.16,2.47-1.66,3.55Z"/>
      <path class="cls-1" d="m8.82,149.81c-1.49-.45-2.98-.89-4.47-1.34-.03.09-.07.18-.1.27,1.48.51,2.97,1.01,4.45,1.52.04-.15.08-.3.12-.46Z"/>
      <path class="cls-1" d="m4.69,147.39c1.53.89,3.05,1.57,5.02,1.23-1.76-.43-3.34-.82-5.02-1.23Z"/>
      <path class="cls-1" d="m32.24,103.89c.63.4.98.79,1.36.81.24.01.76-.58.71-.79-.09-.39-.48-.91-.82-.97-.28-.05-.67.48-1.25.95Z"/>
      <path class="cls-1" d="m7.15,147.08c.29-.37.63-.72.85-1.13.05-.1-.28-.4-.44-.61-.34.42-.67.85-1.01,1.27.2.16.39.31.59.47Z"/>
      <path class="cls-2" d="m127.56,40.07c-.47-.8-.75-1.89-1.44-2.33-.97-.61-2.01.17-2.54,1.01-.71,1.11-1.2,2.36-1.68,3.6-.32.83-.52,1.72-.66,2.6-.1.6,0,1.24,0,1.86.67-.03,1.5.19,1.97-.13,2.23-1.54,4.17-3.33,4.35-6.6Z"/>
      <path class="cls-2" d="m81,40.96c.88.08,1.65.15,2.69.24-1.06-1.12-2.15-1.51-3.22-.91-1.02.58-.89,1.68-.5,2.69.78,1.97,2.57,3.06,4.51,2.64-.91-.58-1.82-1.05-2.59-1.68-.85-.7-1.29-1.64-.89-2.99Z"/>
      <path class="cls-2" d="m95.14,38.51c1.78.78,2.14.65,2.41-1.36.12-.9-.29-1.88-.52-2.81-.02-.1-.7-.18-.74-.1-.4.83-.79,1.67-1.05,2.54-.15.51-.07,1.08-.1,1.73Z"/>
      <path class="cls-2" d="m94.91,54.48c-3.03-1.2-6.08-2.31-9.32-2.77l-.17.6c3.13.91,6.27,1.81,9.4,2.72.03-.19.06-.37.09-.56Z"/>
      <path class="cls-2" d="m83.51,37.28c1.29-.8,1.53-3.85.39-4.58-.17-.11-.84.13-.86.26-.2,1.46-.49,2.96.47,4.32Z"/>
      <path class="cls-2" d="m81.49,26.47c2.73-2.33,2.63-1.57,4.17-.02.28-.95.08-1.94-.77-2.5-.47-.31-1.29-.53-1.75-.33-1.06.45-1.58,1.42-1.65,2.84Z"/>
      <path class="cls-2" d="m131.53,194.57c.25.15.57.5.92.52,6.26.48,12.53.98,18.28-2.38,1.57-.92,2.78-2.18,3.52-4.16-3.81,1.7-7.25,3.77-10.98,4.74-3.76.99-7.8.89-11.75,1.27Z"/>
      <path class="cls-2" d="m150.11,185.04c-2.17,0-3.92.04-5.66-.01-1.75-.05-3.5-.18-5.26-.45.44-.13.88-.25,1.32-.38,0-.16,0-.31,0-.47-3-.37-5.99-.74-9.17-1.13,1.49,2.53,15.16,4.34,18.78,2.44Z"/>
      <path class="cls-2" d="m139.36,168.24c-.21-1.37-.24-2.6-.62-3.71-.2-.59-1.02-.97-1.54-1.44-.72.41-1.29.74-1.71.98-.13,1.37-.26,2.64-.4,4.17h4.27Z"/>
      <path class="cls-2" d="m142.34,170.29c-3.96.36-8.06.74-12,1.1.85,1.33,9.45.7,12-1.1Z"/>
      <path class="cls-2" d="m129.89,163.17c3.7-.17,7.41-.33,11.52-.51-4.14-1.03-7.83-.5-11.52.51Z"/>
      <path class="cls-2" d="m131.12,195.71c-3.06-1.53-5.5-3.67-6.84-6.9.02,2.9,3.72,6.7,6.84,6.9Z"/>
      <path class="cls-2" d="m141.87,162.86c.39,2.16.79,4.38,1.17,6.49,1.13-1.09.5-5.07-1.17-6.49Z"/>
      <path class="cls-2" d="m135.4,169.03v1.31c1.35-.29,2.6-.55,3.86-.82l-.04-.49h-3.81Z"/>
      <path class="cls-2" d="m129.07,164.55c.46,1.65.92,3.3,1.38,4.95.15-.04.3-.08.46-.12-.44-1.64-.87-3.28-1.31-4.92-.17.03-.35.06-.52.1Z"/>
      <path class="cls-2" d="m27.37,63.62c.45.33.9.67,1.35,1-.12.04-.24.09-.36.13.24.71.27,1.71.77,2.08.8.59,1.92,1.05,2.89,1.03.85-.02,1.02-1.72.04-2.47-1.29-.99-2.84-1.64-4.28-2.44l-.4.67Z"/>
      <path class="cls-2" d="m40.19,41.91c4.12,4.19,5.33,4.82,6.71,3.37-1.9-1.36-3.8-2.7-5.8-4.13-.2.17-.55.46-.91.76Z"/>
      <path class="cls-2" d="m40.52,52.02c.11-1.06.29-1.86.22-2.63-.04-.4-.46-1-.8-1.08-.33-.07-.92.32-1.16.68-1.11,1.68-.48,3.25,1.42,3.73.65.16,1.3.35,2.07.25-.62-.33-1.23-.66-1.75-.94Z"/>
      <path class="cls-2" d="m26.15,57.35c-.31-.41-.66-.8-.93-1.24-.43-.71-.93-1.43-1.17-2.21-.14-.44.03-1.13.33-1.49.17-.21.91-.05,1.34.1.68.23,1.32.59,2.08.94-.42-1.38-2.34-2.47-3.54-2.16-1.05.27-1.54,1.54-1.14,3.02.41,1.51,1.22,2.7,2.68,3.32.11-.09.23-.18.34-.28Z"/>
      <path class="cls-2" d="m24.3,49.74c.29.04.59.06.88.11,1.96.32,2.71-.42,2.26-2.42-.11-.5-.7-.89-1.07-1.34-.34.47-.82.89-.99,1.41-.25.77.4,1.95-1.08,2.23Z"/>
      <path class="cls-2" d="m28.8,41c-1.28-.76-3.62-.08-4.93,1.37,1.94.67,3.5.12,4.93-1.37Z"/>
      <path class="cls-2" d="m29.13,51.64c1-1.01.93-2.01-.2-3.36.08,1.39.14,2.38.2,3.36Z"/>
      <path class="cls-2" d="m99.91,140.22c2.65,5.55,5.31,11.1,7.96,16.65l.36-.17c-2.57-5.58-5.15-11.17-7.72-16.75-.2.09-.4.18-.6.27Z"/>
      <path class="cls-2" d="m104.91,159.3c.29,2.28.57,4.57.86,6.85.1-.01.21-.02.31-.03-.24-2.31-.49-4.63-.73-6.94-.14.04-.29.08-.43.12Z"/>
      <path class="cls-2" d="m97.91,78.18c.61-.53,1.09-.94,1.57-1.35-.37-.23-.82-.73-1.09-.64-.61.19-1.14.67-1.7,1.03.34.27.68.54,1.22.97Z"/>
      <path class="cls-2" d="m79.91,82.82c1.62,5.57,4.55,10.59,6.74,15.92.19-.08.38-.16.57-.24-2.3-5.28-4.59-10.57-6.89-15.85-.14.06-.28.11-.42.17Z"/>
    </g>
  </g>
</svg>